<svg width="341" height="318" viewBox="0 0 341 318" fill="none" xmlns="http://www.w3.org/2000/svg">
<path d="M340.393 213.964H209.959V142.044H340.393V213.964ZM210.755 213.206H339.597V142.802H210.755V213.206Z" fill="#E0E0E0"/>
<path d="M313.485 180.393H227.428V182.797H313.485V180.393Z" fill="#F0F0F0"/>
<path d="M319.414 189.356H227.428V191.98H319.414V189.356Z" fill="#F0F0F0"/>
<path d="M319.414 198.426H227.428V201.05H319.414V198.426Z" fill="#F0F0F0"/>
<path d="M257.504 167.372H227.428V173.613H257.504V167.372Z" fill="#F0F0F0"/>
<path d="M339.995 142.423H210.381V153.874H339.995V142.423Z" fill="#E0E0E0"/>
<path d="M330.023 152.16C329.856 152.008 331.527 150.09 333.747 147.875C335.968 145.661 337.918 143.985 338.077 144.129C338.236 144.273 336.573 146.199 334.352 148.421C332.132 150.643 330.182 152.311 330.023 152.16Z" fill="white"/>
<path d="M338.093 152.16C337.934 152.311 335.992 150.643 333.763 148.421C331.535 146.199 329.872 144.281 330.039 144.129C330.206 143.977 332.14 145.646 334.368 147.875C336.597 150.105 338.244 152.008 338.093 152.16Z" fill="white"/>
<path d="M179.891 0H50.2775V71.1697H179.891V0Z" fill="#E6E6E6"/>
<path d="M153.389 37.9774H67.3328V40.3813H153.389V37.9774Z" fill="#F0F0F0"/>
<path d="M159.318 46.9409H67.3328V49.5648H159.318V46.9409Z" fill="#F0F0F0"/>
<path d="M159.318 56.0106H67.3328V58.6345H159.318V56.0106Z" fill="#F0F0F0"/>
<path d="M97.4084 24.9568H67.3328V31.1979H97.4084V24.9568Z" fill="#F0F0F0"/>
<path d="M179.891 0H50.2775V11.4509H179.891V0Z" fill="#E0E0E0"/>
<path d="M169.481 9.68383C169.314 9.53975 170.986 7.61358 173.206 5.39924C175.427 3.18491 177.376 1.50899 177.536 1.66066C177.695 1.81232 176.031 3.73091 173.811 5.94524C171.591 8.15958 169.641 9.82033 169.481 9.68383Z" fill="white"/>
<path d="M177.536 9.68387C177.376 9.83554 175.435 8.1672 173.206 5.94528C170.978 3.72336 169.314 1.81236 169.482 1.6607C169.649 1.50903 171.583 3.17736 173.811 5.39928C176.039 7.6212 177.703 9.53979 177.536 9.68387Z" fill="white"/>
<path d="M130.803 132.208H0.392822V60.28H130.803V132.208ZM1.18868 131.45H130.007V61.0384H1.18868V131.45Z" fill="#E0E0E0"/>
<path d="M103.903 98.6365H17.8461V101.04H103.903V98.6365Z" fill="#F0F0F0"/>
<path d="M109.832 107.6H17.8461V110.224H109.832V107.6Z" fill="#F0F0F0"/>
<path d="M109.832 116.67H17.8461V119.294H109.832V116.67Z" fill="#F0F0F0"/>
<path d="M47.9217 85.6161H17.8461V91.8572H47.9217V85.6161Z" fill="#F0F0F0"/>
<path d="M130.405 60.6592H0.790771V72.11H130.405V60.6592Z" fill="#E0E0E0"/>
<path d="M281.308 148.687H128.264V279.242H281.308V148.687Z" fill="#E6E6E6"/>
<path d="M135.96 107.562H16.0713V226.249H135.96V107.562Z" fill="#F0F0F0"/>
<path d="M135.96 107.562H16.0713V120.492H135.96V107.562Z" fill="#E0E0E0"/>
<path d="M25.9718 113.894C25.95 114.363 25.7842 114.816 25.4949 115.196C25.2056 115.575 24.8057 115.866 24.3446 116.031C23.8836 116.196 23.3818 116.229 22.9015 116.125C22.4212 116.021 21.9836 115.785 21.643 115.446C21.3023 115.107 21.0736 114.68 20.9852 114.218C20.8969 113.756 20.9528 113.28 21.146 112.848C21.3392 112.417 21.6611 112.048 22.072 111.789C22.4828 111.531 22.9644 111.392 23.4569 111.392C24.138 111.408 24.7849 111.68 25.2561 112.149C25.7273 112.618 25.9847 113.245 25.9718 113.894Z" fill="white"/>
<path d="M36.1827 113.894C36.1624 114.365 35.9972 114.82 35.7075 115.203C35.4179 115.585 35.0167 115.878 34.5539 116.044C34.091 116.211 33.5869 116.244 33.1043 116.14C32.6217 116.036 32.182 115.799 31.8397 115.458C31.4975 115.118 31.2679 114.689 31.1796 114.225C31.0912 113.761 31.148 113.283 31.3428 112.849C31.5377 112.416 31.8619 112.046 32.2753 111.787C32.6887 111.528 33.1729 111.391 33.6678 111.392C34.3489 111.408 34.9957 111.68 35.467 112.149C35.9382 112.618 36.1955 113.245 36.1827 113.894Z" fill="white"/>
<path d="M46.3936 113.894C46.3733 114.365 46.2081 114.82 45.9185 115.203C45.6289 115.585 45.2277 115.878 44.7648 116.044C44.3019 116.211 43.7978 116.244 43.3153 116.14C42.8327 116.036 42.3929 115.799 42.0507 115.458C41.7085 115.118 41.4789 114.689 41.3905 114.225C41.3022 113.761 41.3589 113.283 41.5538 112.849C41.7486 112.416 42.0729 112.046 42.4863 111.787C42.8996 111.528 43.3839 111.391 43.8787 111.392C44.5598 111.408 45.2067 111.68 45.6779 112.149C46.1491 112.618 46.4064 113.245 46.3936 113.894Z" fill="white"/>
<path d="M323.274 25.9578H170.23V171.3H323.274V25.9578Z" fill="#F0F0F0"/>
<path d="M323.274 25.9578H170.23V42.9824H323.274V25.9578Z" fill="#E0E0E0"/>
<path d="M183.266 34.2995C183.238 34.9184 183.02 35.5158 182.638 36.0176C182.257 36.5194 181.729 36.9034 181.121 37.1219C180.513 37.3405 179.85 37.3839 179.216 37.2469C178.582 37.11 178.004 36.7985 177.554 36.3513C177.105 35.9041 176.802 35.3408 176.686 34.7314C176.569 34.122 176.642 33.4933 176.897 32.9234C177.152 32.3535 177.577 31.8675 178.119 31.5256C178.661 31.1838 179.297 31.0013 179.947 31.0007C180.846 31.0206 181.699 31.3789 182.321 31.9971C182.943 32.6154 183.283 33.4432 183.266 34.2995Z" fill="white"/>
<path d="M195.737 32.07C196.178 32.5266 196.469 33.0967 196.572 33.7095C196.676 34.3222 196.588 34.9504 196.319 35.5159C196.051 36.0813 195.613 36.5589 195.062 36.8893C194.511 37.2196 193.869 37.388 193.218 37.3735C192.567 37.359 191.935 37.1623 191.4 36.8078C190.866 36.4534 190.452 35.9568 190.212 35.3801C189.971 34.8033 189.914 34.1719 190.047 33.5644C190.181 32.9569 190.499 32.4003 190.962 31.9639C191.61 31.3757 192.477 31.0567 193.372 31.0766C194.268 31.0965 195.118 31.4537 195.737 32.07Z" fill="white"/>
<path d="M210.15 34.2995C210.122 34.9184 209.904 35.5158 209.522 36.0176C209.141 36.5194 208.614 36.9034 208.005 37.1219C207.397 37.3405 206.735 37.3839 206.1 37.2469C205.466 37.11 204.889 36.7985 204.439 36.3513C203.989 35.9041 203.687 35.3408 203.57 34.7314C203.453 34.122 203.526 33.4933 203.781 32.9234C204.036 32.3535 204.461 31.8675 205.003 31.5256C205.545 31.1838 206.181 31.0013 206.831 31.0007C207.73 31.0206 208.584 31.3789 209.206 31.9971C209.827 32.6154 210.167 33.4432 210.15 34.2995Z" fill="white"/>
<path d="M290.214 317.803C290.214 317.909 234.949 318 166.799 318C98.6498 318 43.3613 317.909 43.3613 317.803C43.3613 317.697 98.618 317.606 166.799 317.606C234.981 317.606 290.214 317.704 290.214 317.803Z" fill="#263238"/>
<path d="M236.366 224.968C224.07 216.785 221.284 201.596 221.77 187.938C221.849 185.663 221.587 183.252 222.725 181.257C223.863 179.263 226.521 177.89 228.662 178.846C230.437 179.642 231.209 181.614 232.203 183.244C233.531 185.416 235.476 187.185 237.814 188.348C239.334 189.106 241.22 189.561 242.725 188.772C244.794 187.688 245.033 184.981 245.017 182.706C245.017 178.474 244.99 174.248 244.937 170.026C244.794 167.759 245.036 165.486 245.653 163.292C246.394 161.139 248.041 159.144 250.293 158.537C252.546 157.931 255.355 159.182 255.864 161.396C255.952 162.334 255.976 163.277 255.936 164.217C256 165.165 256.461 166.204 257.392 166.492C258.324 166.781 259.295 166.121 260.011 165.453C262.462 163.178 264.133 160.213 265.685 157.286C267.237 154.359 268.757 151.348 270.986 148.854C273.214 146.359 276.294 144.379 279.74 144.19C283.186 144 286.776 146.017 287.635 149.202C288.495 152.387 286.545 155.641 284.452 158.227C281.293 162.065 277.57 165.449 273.397 168.274C272.583 168.698 271.933 169.36 271.543 170.163C271.025 171.679 272.53 173.196 274.098 173.674C275.872 174.235 277.798 174.061 279.669 174.273C281.539 174.485 283.528 175.259 284.237 176.927C285.208 179.248 283.17 181.674 281.173 183.267C277.162 186.452 272.607 188.958 267.707 190.676C265.956 191.282 264.117 191.821 262.701 192.989C261.284 194.156 260.441 196.196 261.292 197.796C262.144 199.397 264.332 199.905 266.171 199.579C268.009 199.252 269.641 198.312 271.392 197.683C274.663 196.507 278.881 196.72 280.942 199.412C281.581 200.339 281.985 201.395 282.123 202.496C282.261 203.598 282.129 204.714 281.738 205.759C280.941 207.838 279.715 209.743 278.133 211.363C272.92 217.297 266.147 221.806 258.507 224.429C250.922 226.932 243.895 227.614 236.358 224.983" fill="#8674AA"/>
<path d="M284.133 146.063C284.133 146.063 284.062 146.139 283.903 146.275L283.194 146.874C282.573 147.405 281.658 148.179 280.504 149.202C277.232 152.097 274.194 155.223 271.416 158.553C269.641 160.653 267.802 163.034 265.844 165.62C263.887 168.206 261.865 170.997 259.86 173.962C257.721 177.089 255.763 180.324 253.994 183.654C253.071 185.39 252.259 187.203 251.423 189.053L248.956 194.702C245.704 201.819 242.872 209.102 240.472 216.52C238.54 222.588 237.207 228.816 236.493 235.122C236.03 239.377 235.956 243.662 236.27 247.93C236.398 249.447 236.517 250.607 236.628 251.396C236.676 251.775 236.708 252.078 236.74 252.298V252.609C236.706 252.51 236.682 252.409 236.668 252.306C236.628 252.086 236.581 251.79 236.517 251.411C236.374 250.652 236.223 249.454 236.079 247.938C235.695 243.662 235.722 239.362 236.159 235.091C236.829 228.759 238.132 222.502 240.051 216.406C242.43 208.968 245.255 201.666 248.511 194.536L251.041 188.909C251.877 187.066 252.697 185.238 253.628 183.494C255.41 180.155 257.384 176.912 259.541 173.78C261.579 170.747 263.632 168.001 265.566 165.438C267.5 162.875 269.37 160.479 271.137 158.386C273.944 155.065 277.023 151.961 280.345 149.104C281.523 148.095 282.462 147.337 283.099 146.829L283.839 146.26C283.93 146.185 284.028 146.119 284.133 146.063Z" fill="#263238"/>
<path d="M253.731 183.479C253.619 183.167 253.542 182.844 253.501 182.516C253.373 181.887 253.23 180.999 253.063 179.847C252.721 177.572 252.371 174.455 251.996 171.004C251.622 167.554 251.201 164.43 250.85 162.177C250.667 161.055 250.508 160.153 250.397 159.523C250.31 159.201 250.264 158.87 250.261 158.537C250.399 158.841 250.497 159.159 250.556 159.485C250.731 160.107 250.93 161.002 251.153 162.132C251.606 164.407 252.052 167.501 252.426 170.959C252.8 174.417 253.119 177.45 253.365 179.809C253.485 180.87 253.588 181.773 253.668 182.493C253.73 182.818 253.751 183.149 253.731 183.479Z" fill="#263238"/>
<path d="M284.356 178.034C283.969 178.114 283.575 178.16 283.178 178.171C282.382 178.239 281.252 178.33 279.852 178.482C277.05 178.77 273.198 179.301 268.972 180.059C264.746 180.817 260.95 181.674 258.22 182.334C256.859 182.668 255.761 182.971 255.037 183.176C254.65 183.307 254.25 183.398 253.843 183.449C254.211 183.272 254.594 183.128 254.989 183.016C255.737 182.766 256.819 182.417 258.172 182.046C260.886 181.287 264.683 180.385 268.924 179.611C272.518 178.957 276.144 178.476 279.788 178.171C281.197 178.057 282.335 178.011 283.131 177.996C283.539 177.97 283.95 177.982 284.356 178.034Z" fill="#263238"/>
<path d="M240.441 215.875C240.356 215.765 240.286 215.646 240.234 215.519L239.708 214.465C239.255 213.547 238.642 212.19 237.91 210.529C236.429 207.192 234.543 202.521 232.538 197.334C230.532 192.147 228.686 187.475 227.285 184.101C226.601 182.463 226.035 181.121 225.614 180.12L225.168 179.035C225.106 178.91 225.063 178.777 225.041 178.641C225.126 178.751 225.195 178.87 225.248 178.997L225.773 180.051C226.219 180.969 226.839 182.326 227.571 183.987C229.052 187.324 230.938 191.995 232.944 197.182C234.949 202.369 236.796 207.04 238.196 210.415C238.881 212.053 239.446 213.395 239.86 214.396C240.043 214.829 240.194 215.155 240.313 215.481C240.375 215.606 240.418 215.739 240.441 215.875Z" fill="#263238"/>
<path d="M281.093 203.385C280.966 203.455 280.829 203.508 280.687 203.544L279.509 203.924L275.156 205.266C271.479 206.403 266.402 208.026 260.831 209.816C255.26 211.606 250.158 213.198 246.457 214.26C244.611 214.798 243.107 215.208 242.064 215.481L240.862 215.776C240.723 215.819 240.579 215.847 240.433 215.86C240.56 215.79 240.696 215.737 240.838 215.701L242.016 215.321L246.37 213.979C250.047 212.842 255.124 211.219 260.695 209.429C266.266 207.64 271.36 206.047 275.061 204.985C276.915 204.447 278.411 204.037 279.462 203.764L280.663 203.469C280.803 203.426 280.947 203.398 281.093 203.385Z" fill="#263238"/>
<path d="M264.507 19.4361L260.409 20.8314L258.65 15.7279C255.419 6.31692 245.12 1.3195 235.657 4.49692C226.195 7.67434 221.157 17.9953 224.388 27.4062L226.147 32.5098L222.032 33.9127C220.463 34.4926 219.189 35.6262 218.475 37.0781C217.76 38.5299 217.661 40.1883 218.196 41.7084L229.601 74.9158C229.838 75.6684 230.231 76.3679 230.757 76.9728C231.283 77.5777 231.931 78.0757 232.663 78.4371C233.395 78.7986 234.196 79.0162 235.018 79.077C235.84 79.1378 236.666 79.0405 237.448 78.7909L279.923 64.3143C281.513 63.7355 282.805 62.5918 283.528 61.1237C284.251 59.6557 284.348 57.9777 283.799 56.4428L272.387 23.2354C272.144 22.485 271.745 21.7889 271.213 21.1886C270.682 20.5884 270.029 20.0963 269.294 19.7417C268.558 19.3871 267.755 19.1773 266.933 19.1248C266.111 19.0723 265.286 19.1782 264.507 19.4361ZM232.132 24.7444C231.261 22.2975 231.417 19.6242 232.568 17.2846C233.719 14.945 235.776 13.1208 238.308 12.194C239.558 11.7865 240.881 11.6231 242.199 11.7135C243.516 11.804 244.802 12.1464 245.977 12.7203C247.153 13.2943 248.196 14.0881 249.042 15.0543C249.889 16.0205 250.523 17.1394 250.906 18.3441L252.657 23.4477L233.883 29.848L232.132 24.7444ZM256.008 54.2133L258.921 62.6915C258.974 62.8615 258.957 63.0446 258.872 63.2028C258.788 63.3609 258.643 63.482 258.467 63.5408L254.384 64.9286C254.222 64.9715 254.048 64.9529 253.9 64.8765C253.751 64.8002 253.64 64.6721 253.588 64.5191L250.652 56.0788C249.032 55.9948 247.478 55.4413 246.198 54.4926C244.918 53.5439 243.973 52.2453 243.489 50.7705C242.797 48.8208 242.923 46.6915 243.841 44.8284C244.759 42.9654 246.398 41.5131 248.415 40.7756C249.411 40.4515 250.465 40.3216 251.514 40.3939C252.564 40.4661 253.587 40.7389 254.524 41.1961C255.46 41.6532 256.291 42.2853 256.965 43.0547C257.64 43.8241 258.145 44.7151 258.451 45.6745C258.963 47.1726 259.005 48.7805 258.573 50.3012C258.14 51.8219 257.252 53.1894 256.016 54.2361L256.008 54.2133Z" fill="#8674AA"/>
<path d="M260.226 20.7405C260.226 20.8467 252.625 23.5691 243.17 26.8072C233.716 30.0453 226.004 32.6463 225.964 32.5705C225.924 32.4947 233.564 29.7495 243.027 26.5038C252.49 23.2582 260.186 20.6419 260.226 20.7405Z" fill="#263238"/>
<path d="M269.251 22.1357C269.286 22.2016 269.315 22.27 269.338 22.3405C269.402 22.4922 269.474 22.6893 269.569 22.932C269.776 23.4856 270.063 24.2515 270.421 25.207L273.477 33.6852C274.75 37.2797 276.27 41.5415 277.958 46.2735C278.753 48.6471 279.693 51.1193 280.568 53.7204C281.037 55.0608 281.239 56.4726 281.165 57.8836C281.097 58.6175 280.878 59.3313 280.52 59.9842C280.138 60.6349 279.627 61.2091 279.016 61.6753C277.786 62.5305 276.422 63.1935 274.973 63.6394L270.874 65.0423L263.115 67.6889L249.975 72.1479L241.101 75.1206L238.714 75.8789L238.077 76.0761C238.009 76.1049 237.936 76.1229 237.862 76.1292C237.862 76.1292 237.926 76.1292 238.061 76.0382L238.682 75.8031L241.069 74.9462L249.895 71.8521L263.011 67.3021L270.755 64.6328L274.854 63.2223C276.261 62.7946 277.586 62.1517 278.777 61.3189C279.346 60.8863 279.821 60.3533 280.178 59.7491C280.515 59.1453 280.718 58.482 280.775 57.8002C280.848 56.4407 280.654 55.0801 280.202 53.7886C279.342 51.2103 278.435 48.7154 277.615 46.3418C275.96 41.6022 274.432 37.3252 273.222 33.7307C272.012 30.1362 270.994 27.2469 270.293 25.2146C269.959 24.2212 269.704 23.4477 269.498 22.8865L269.307 22.2798C269.283 22.2339 269.264 22.1856 269.251 22.1357Z" fill="#263238"/>
<path d="M246.839 11.6784C246.839 11.6784 246.417 11.4813 245.638 11.1779C244.526 10.7709 243.35 10.5453 242.16 10.5106C240.395 10.453 238.639 10.7689 237.018 11.4358C235.047 12.2661 233.362 13.6092 232.156 15.3109C230.941 17.0077 230.29 19.0128 230.285 21.0666C230.302 22.7499 230.57 24.4224 231.081 26.0337C231.495 27.4139 231.925 28.5135 232.211 29.2794C232.38 29.6684 232.519 30.0689 232.625 30.4775C232.399 30.1138 232.21 29.7304 232.06 29.3325C231.734 28.5741 231.264 27.4973 230.803 26.1095C230.236 24.4813 229.928 22.7816 229.887 21.0666C229.866 18.9353 230.533 16.8492 231.798 15.0909C233.046 13.3271 234.8 11.9425 236.851 11.1021C238.523 10.4316 240.333 10.1358 242.144 10.2376C243.36 10.2967 244.555 10.5665 245.669 11.0339C245.967 11.1649 246.255 11.317 246.529 11.4889C246.642 11.5362 246.747 11.6002 246.839 11.6784Z" fill="#263238"/>
<path d="M247.205 41.352C247.332 41.2787 247.466 41.2153 247.603 41.1624C248.002 40.9912 248.414 40.8516 248.837 40.7454C249.508 40.5567 250.2 40.4447 250.898 40.4117C251.848 40.363 252.799 40.4998 253.692 40.8136C255.729 41.4961 257.599 43.4754 258.523 46.122C258.965 47.5422 258.965 49.0545 258.523 50.4748C258.032 52.0163 257.152 53.4197 255.96 54.5622L256.008 54.3575C257.066 57.1254 258.22 60.1284 259.414 63.2603L259.486 63.4499L259.287 63.5181L257.464 64.0945L253.485 65.3609L253.286 65.4216L253.222 65.232C252.132 62.0925 250.938 59.1653 250.039 56.2912L250.214 56.4201C248.658 56.297 247.174 55.7405 245.948 54.82C244.838 54.0057 243.928 52.9705 243.282 51.7867C242.698 50.7369 242.408 49.5618 242.438 48.3742C242.475 47.1605 242.793 45.9695 243.37 44.8866C243.946 43.8037 244.767 42.8556 245.773 42.1104C246.187 41.79 246.652 41.5341 247.15 41.352C246.7 41.6062 246.264 41.8821 245.844 42.1786C244.739 43.0696 243.893 44.2158 243.385 45.5077C242.95 46.4819 242.746 47.5359 242.789 48.5939C242.831 49.652 243.119 50.688 243.632 51.6275C244.268 52.7663 245.156 53.7599 246.234 54.5395C247.404 55.4144 248.819 55.9419 250.301 56.0561H250.437L250.476 56.1699C251.352 58.9909 252.554 61.9408 253.66 65.0955L253.397 64.9742L257.377 63.7077L259.191 63.1238L259.064 63.3816C257.878 60.2497 256.732 57.2391 255.681 54.4712V54.3575L255.777 54.2665C256.934 53.1713 257.797 51.8264 258.292 50.3459C258.714 48.9873 258.714 47.5412 258.292 46.1826C257.424 43.6346 255.634 41.7009 253.692 41.0184C252.832 40.7025 251.914 40.5555 250.994 40.5861C250.306 40.6011 249.623 40.6902 248.956 40.8515C247.77 41.1321 247.213 41.3899 247.205 41.352Z" fill="#263238"/>
<path d="M222.605 260.314L143.107 259.965C138.516 259.941 134.123 258.181 130.892 255.073C127.661 251.965 125.857 247.762 125.876 243.388L126.72 53.493C126.729 51.3257 127.187 49.1814 128.067 47.1828C128.946 45.1841 130.23 43.3702 131.846 41.8447C133.462 40.3193 135.377 39.1122 137.483 38.2925C139.589 37.4728 141.843 37.0565 144.118 37.0675L223.608 37.4163C228.199 37.4384 232.593 39.1958 235.825 42.3025C239.058 45.4093 240.863 49.6114 240.847 53.9859L240.003 243.873C239.993 246.041 239.536 248.186 238.657 250.185C237.777 252.185 236.493 254 234.878 255.527C233.262 257.053 231.347 258.262 229.241 259.083C227.135 259.904 224.881 260.323 222.605 260.314Z" fill="#455A64"/>
<path d="M223.489 43.9455H208.081C207.578 43.9544 207.082 44.0576 206.621 44.2491C206.16 44.4407 205.744 44.7169 205.395 45.062C205.046 45.407 204.772 45.8142 204.588 46.2602C204.405 46.7062 204.315 47.1823 204.324 47.6614V50.3231C204.334 50.8018 204.244 51.2775 204.06 51.7231C203.877 52.1687 203.602 52.5754 203.254 52.9198C202.905 53.2643 202.488 53.5398 202.027 53.7305C201.566 53.9212 201.07 54.0235 200.568 54.0314L170.532 53.9025C169.516 53.8767 168.552 53.4676 167.852 52.7652C167.153 52.0629 166.774 51.1245 166.8 50.1563V47.4945C166.825 46.5276 166.448 45.5904 165.75 44.8882C165.051 44.186 164.09 43.7762 163.075 43.7484H157.655L144.165 43.6877C140.957 43.6695 137.871 44.8635 135.585 47.0083C133.298 49.153 131.996 52.0738 131.965 55.131L131.169 240.483C131.161 242 131.468 243.503 132.07 244.907C132.672 246.311 133.559 247.588 134.68 248.665C135.8 249.743 137.132 250.599 138.6 251.186C140.068 251.773 141.642 252.079 143.234 252.086L222.566 252.434C224.158 252.441 225.737 252.149 227.211 251.575C228.686 251.001 230.027 250.155 231.158 249.087C232.29 248.019 233.189 246.749 233.806 245.349C234.422 243.95 234.743 242.448 234.75 240.931L235.546 55.5784C235.565 52.5126 234.306 49.565 232.045 47.3836C229.784 45.2022 226.706 43.9656 223.489 43.9455Z" fill="white"/>
<path d="M212.816 227.705L153.827 227.462C153.214 227.462 152.721 226.825 152.729 226.052L152.792 211.348C152.792 210.59 153.294 209.937 153.907 209.937L212.896 210.195C213.235 210.251 213.539 210.43 213.744 210.694C213.949 210.958 214.038 211.288 213.994 211.613L213.938 226.302C213.938 227.083 213.429 227.713 212.816 227.705Z" fill="#8674AA"/>
<path d="M172.336 222.355C171.913 222.355 171.507 222.287 171.116 222.152C170.731 222.016 170.433 221.837 170.222 221.615L170.458 221.152C170.664 221.358 170.937 221.526 171.279 221.656C171.62 221.78 171.973 221.843 172.336 221.843C172.846 221.843 173.228 221.751 173.483 221.566C173.737 221.376 173.865 221.133 173.865 220.834C173.865 220.607 173.794 220.425 173.653 220.29C173.518 220.154 173.35 220.051 173.149 219.981C172.949 219.905 172.669 219.823 172.312 219.737C171.883 219.628 171.542 219.525 171.287 219.428C171.032 219.325 170.813 219.17 170.628 218.964C170.45 218.758 170.36 218.479 170.36 218.127C170.36 217.839 170.436 217.579 170.588 217.346C170.74 217.108 170.973 216.918 171.287 216.777C171.602 216.636 171.992 216.565 172.458 216.565C172.783 216.565 173.1 216.612 173.409 216.704C173.724 216.79 173.995 216.912 174.222 217.07L174.019 217.549C173.781 217.392 173.526 217.276 173.255 217.2C172.984 217.118 172.718 217.078 172.458 217.078C171.959 217.078 171.583 217.175 171.328 217.37C171.078 217.56 170.954 217.807 170.954 218.11C170.954 218.338 171.021 218.522 171.157 218.663C171.298 218.799 171.471 218.905 171.677 218.98C171.889 219.051 172.171 219.13 172.523 219.216C172.94 219.319 173.277 219.422 173.531 219.525C173.792 219.623 174.011 219.775 174.19 219.981C174.369 220.181 174.458 220.455 174.458 220.802C174.458 221.089 174.38 221.352 174.222 221.591C174.071 221.824 173.835 222.011 173.515 222.152C173.195 222.287 172.802 222.355 172.336 222.355ZM175.769 216.614H176.371V222.306H175.769V216.614ZM182.98 216.614V222.306H182.484L178.825 217.688V222.306H178.223V216.614H178.719L182.386 221.233V216.614H182.98ZM188.846 219.46H189.424V221.631C189.158 221.864 188.844 222.043 188.48 222.168C188.117 222.293 187.735 222.355 187.334 222.355C186.765 222.355 186.252 222.23 185.797 221.981C185.342 221.732 184.984 221.387 184.724 220.948C184.464 220.504 184.333 220.008 184.333 219.46C184.333 218.913 184.464 218.419 184.724 217.98C184.984 217.536 185.342 217.189 185.797 216.94C186.252 216.69 186.767 216.565 187.342 216.565C187.776 216.565 188.174 216.636 188.537 216.777C188.901 216.912 189.207 217.116 189.456 217.387L189.082 217.769C188.632 217.324 188.06 217.102 187.366 217.102C186.906 217.102 186.488 217.205 186.114 217.411C185.746 217.612 185.456 217.894 185.244 218.257C185.033 218.615 184.927 219.016 184.927 219.46C184.927 219.905 185.033 220.306 185.244 220.664C185.456 221.021 185.746 221.303 186.114 221.509C186.483 221.715 186.898 221.818 187.358 221.818C187.944 221.818 188.44 221.672 188.846 221.379V219.46ZM193.133 218.029H193.71V222.306H193.133V218.029ZM193.426 217.094C193.306 217.094 193.206 217.053 193.125 216.972C193.043 216.891 193.003 216.793 193.003 216.679C193.003 216.571 193.043 216.476 193.125 216.395C193.206 216.313 193.306 216.273 193.426 216.273C193.545 216.273 193.645 216.313 193.726 216.395C193.808 216.471 193.848 216.563 193.848 216.671C193.848 216.79 193.808 216.891 193.726 216.972C193.645 217.053 193.545 217.094 193.426 217.094ZM197.496 217.997C198.032 217.997 198.458 218.154 198.772 218.468C199.092 218.777 199.252 219.23 199.252 219.826V222.306H198.675V219.883C198.675 219.439 198.564 219.1 198.341 218.867C198.119 218.634 197.802 218.517 197.39 218.517C196.929 218.517 196.563 218.655 196.292 218.932C196.027 219.203 195.894 219.579 195.894 220.062V222.306H195.317V218.029H195.869V218.818C196.027 218.558 196.243 218.357 196.52 218.216C196.802 218.07 197.127 217.997 197.496 217.997Z" fill="#E8E8E3"/>
<path d="M165.593 98.4319L145.124 98.3434L145.107 101.923L165.576 102.011L165.593 98.4319Z" fill="#8674AA"/>
<path opacity="0.1" d="M165.593 98.4319L145.124 98.3434L145.107 101.923L165.576 102.011L165.593 98.4319Z" fill="black"/>
<path d="M225.598 120.408C225.759 120.393 225.916 120.357 226.067 120.302C226.288 120.22 226.479 120.081 226.62 119.9C226.761 119.718 226.845 119.503 226.863 119.279C226.863 118.073 226.863 116.313 226.863 114.054C226.863 112.924 226.863 111.657 226.863 110.262C226.863 109.921 226.863 109.564 226.863 109.208C226.915 108.862 226.836 108.51 226.64 108.214C226.531 108.073 226.388 107.957 226.224 107.877C226.06 107.797 225.878 107.754 225.693 107.752H224.452H212.952L146.386 107.517C146.215 107.514 146.047 107.55 145.894 107.623C145.742 107.696 145.61 107.802 145.51 107.934C145.318 108.23 145.245 108.583 145.303 108.927C145.303 109.686 145.303 110.444 145.303 111.202C145.303 112.719 145.303 114.236 145.303 115.752C145.303 116.511 145.303 117.269 145.303 118.027C145.27 118.38 145.27 118.736 145.303 119.089C145.345 119.24 145.423 119.381 145.531 119.499C145.638 119.617 145.773 119.711 145.924 119.771C146.081 119.831 146.249 119.859 146.418 119.855H150.469L168.145 119.946L198.069 120.12L218.244 120.272L223.728 120.333H225.152C225.478 120.333 225.638 120.333 225.638 120.333H225.152H223.728H218.244H198.069L168.145 120.242L150.469 120.173H146.418C146.195 120.182 145.972 120.146 145.765 120.067C145.555 119.982 145.369 119.852 145.22 119.688C145.071 119.524 144.964 119.329 144.905 119.119C144.859 118.92 144.843 118.716 144.858 118.513V117.951C144.858 117.193 144.858 116.435 144.858 115.676C144.858 114.16 144.858 112.643 144.858 111.126C144.858 110.368 144.858 109.61 144.858 108.851C144.843 108.649 144.843 108.447 144.858 108.245C144.888 108.022 144.978 107.81 145.12 107.631C145.258 107.447 145.439 107.299 145.65 107.197C145.861 107.095 146.094 107.044 146.33 107.047L212.896 107.395L224.396 107.471H225.638C225.856 107.471 226.072 107.522 226.266 107.618C226.46 107.715 226.626 107.854 226.752 108.025C226.976 108.355 227.067 108.751 227.007 109.14C227.007 109.496 227.007 109.852 227.007 110.194C227.007 111.574 227.007 112.84 227.007 113.985C227.007 116.26 226.951 118.005 226.935 119.218C226.915 119.451 226.826 119.674 226.678 119.861C226.53 120.048 226.329 120.19 226.099 120.272C225.949 120.361 225.775 120.408 225.598 120.408Z" fill="#E0E0E0"/>
<path d="M188.71 111.323H151.272V114.668H188.71V111.323Z" fill="#8674AA"/>
<path opacity="0.2" d="M188.71 111.323H151.272V114.668H188.71V111.323Z" fill="white"/>
<path d="M165.453 131.085L144.984 130.996L144.967 134.576L165.436 134.664L165.453 131.085Z" fill="#8674AA"/>
<path opacity="0.1" d="M165.453 131.085L144.984 130.996L144.967 134.576L165.436 134.664L165.453 131.085Z" fill="black"/>
<path d="M225.08 153.062C225.241 153.043 225.401 153.016 225.558 152.979C225.78 152.911 225.985 152.799 226.158 152.65C226.331 152.501 226.468 152.318 226.561 152.114C226.686 151.808 226.735 151.479 226.704 151.151C226.704 150.787 226.704 150.393 226.704 149.953C226.704 149.073 226.704 148.072 226.704 146.92V142.104C226.742 141.756 226.661 141.405 226.473 141.103C226.277 140.794 225.968 140.565 225.606 140.459C225.209 140.391 224.806 140.371 224.404 140.398H212.952L146.616 140.163C146.26 140.164 145.915 140.288 145.647 140.513C145.38 140.737 145.206 141.047 145.16 141.384C145.16 142.104 145.16 142.901 145.16 143.659C145.16 145.176 145.16 146.692 145.16 148.209C145.16 148.967 145.16 149.726 145.16 150.484C145.13 150.838 145.146 151.195 145.208 151.546C145.307 151.853 145.512 152.12 145.789 152.304C146.083 152.482 146.428 152.567 146.776 152.547H147.882H150.182L167.794 152.63L197.615 152.804L217.719 152.956L223.186 153.017H224.611H225.088H224.611H223.186H217.719H197.615L167.778 152.986L150.166 152.926H146.704C146.274 152.95 145.846 152.841 145.486 152.615C145.124 152.376 144.86 152.025 144.738 151.621C144.667 151.236 144.645 150.844 144.675 150.454C144.675 149.695 144.675 148.937 144.675 148.179C144.675 146.662 144.675 145.145 144.675 143.629C144.675 142.87 144.675 142.112 144.675 141.354C144.733 140.92 144.955 140.521 145.299 140.232C145.643 139.943 146.086 139.784 146.545 139.784L212.88 140.133L224.332 140.216C224.759 140.191 225.187 140.219 225.606 140.299C226.019 140.428 226.368 140.698 226.585 141.058C226.791 141.392 226.88 141.78 226.839 142.165C226.839 142.521 226.839 142.87 226.839 143.219C226.839 144.592 226.839 145.85 226.839 147.011C226.839 148.171 226.839 149.149 226.839 150.044C226.839 150.476 226.839 150.878 226.839 151.25C226.868 151.589 226.811 151.93 226.672 152.243C226.569 152.452 226.419 152.638 226.234 152.787C226.049 152.936 225.832 153.046 225.598 153.108C225.424 153.121 225.249 153.106 225.08 153.062Z" fill="#E0E0E0"/>
<path d="M165.299 165.156L144.83 165.067L144.813 168.647L165.282 168.735L165.299 165.156Z" fill="#8674AA"/>
<path opacity="0.1" d="M165.299 165.156L144.83 165.067L144.813 168.647L165.282 168.735L165.299 165.156Z" fill="black"/>
<path d="M224.921 187.119C225.082 187.101 225.242 187.073 225.399 187.036C225.62 186.969 225.824 186.858 225.997 186.71C226.17 186.562 226.308 186.381 226.402 186.179C226.526 185.872 226.575 185.543 226.545 185.216C226.545 184.844 226.545 184.457 226.545 184.01C226.545 183.138 226.545 182.129 226.545 180.977V176.161C226.583 175.813 226.502 175.462 226.314 175.16C226.113 174.857 225.806 174.631 225.447 174.523C225.05 174.453 224.647 174.43 224.245 174.455H212.792L146.457 174.22C146.1 174.221 145.756 174.345 145.488 174.569C145.22 174.794 145.047 175.104 145.001 175.441C145.001 176.199 145.001 176.957 145.001 177.716C145.001 179.232 145.001 180.749 145.001 182.266C145.001 183.024 145.001 183.782 145.001 184.541C144.971 184.893 144.987 185.247 145.049 185.595C145.144 185.904 145.349 186.172 145.63 186.353C145.922 186.535 146.268 186.62 146.616 186.596H150.078L167.691 186.687L197.512 186.861L217.615 187.013L223.083 187.074H224.507C224.826 187.074 224.985 187.074 224.985 187.074C224.985 187.074 224.826 187.074 224.507 187.074H223.083H217.615H197.512L167.691 186.99L150.078 186.922H146.616C146.186 186.95 145.757 186.84 145.399 186.611C145.037 186.372 144.772 186.021 144.651 185.618C144.579 185.232 144.558 184.84 144.587 184.45C144.587 183.691 144.587 182.933 144.587 182.175C144.587 180.658 144.587 179.141 144.587 177.625C144.587 176.866 144.587 176.108 144.587 175.312C144.643 174.879 144.864 174.48 145.207 174.191C145.55 173.902 145.991 173.742 146.449 173.742L212.784 174.091L224.237 174.174C224.663 174.149 225.091 174.177 225.51 174.258C225.924 174.386 226.272 174.657 226.489 175.016C226.695 175.35 226.784 175.738 226.744 176.123C226.744 176.48 226.744 176.836 226.744 177.177C226.744 178.55 226.744 179.809 226.744 180.969C226.744 182.129 226.744 183.107 226.744 184.002C226.744 184.435 226.744 184.836 226.744 185.208C226.774 185.547 226.717 185.888 226.577 186.201C226.473 186.411 226.324 186.596 226.138 186.745C225.953 186.895 225.736 187.004 225.502 187.066C225.316 187.127 225.117 187.145 224.921 187.119Z" fill="#E0E0E0"/>
<path d="M187.91 144.923L150.474 144.761L150.458 148.105L187.895 148.267L187.91 144.923Z" fill="#8674AA"/>
<path opacity="0.2" d="M187.91 144.923L150.474 144.761L150.458 148.105L187.895 148.267L187.91 144.923Z" fill="white"/>
<path d="M153.859 180.931C153.835 181.236 153.718 181.528 153.522 181.77C153.327 182.012 153.06 182.195 152.757 182.294C152.453 182.393 152.126 182.406 151.815 182.33C151.504 182.253 151.223 182.092 151.008 181.865C150.793 181.638 150.652 181.356 150.603 181.054C150.555 180.751 150.6 180.442 150.734 180.164C150.868 179.886 151.085 179.652 151.357 179.49C151.63 179.329 151.946 179.247 152.267 179.255C152.71 179.279 153.126 179.468 153.424 179.782C153.722 180.095 153.878 180.508 153.859 180.931Z" fill="#8674AA"/>
<path d="M158.928 180.954C158.944 181.168 158.913 181.382 158.838 181.584C158.763 181.786 158.645 181.971 158.492 182.128C158.338 182.285 158.153 182.41 157.947 182.495C157.74 182.581 157.518 182.625 157.293 182.625C157.068 182.625 156.845 182.581 156.639 182.495C156.433 182.41 156.247 182.285 156.094 182.128C155.941 181.971 155.823 181.786 155.748 181.584C155.672 181.382 155.642 181.168 155.657 180.954C155.642 180.74 155.672 180.526 155.748 180.324C155.823 180.122 155.941 179.936 156.094 179.78C156.247 179.623 156.433 179.498 156.639 179.413C156.845 179.327 157.068 179.283 157.293 179.283C157.518 179.283 157.74 179.327 157.947 179.413C158.153 179.498 158.338 179.623 158.492 179.78C158.645 179.936 158.763 180.122 158.838 180.324C158.913 180.526 158.944 180.74 158.928 180.954Z" fill="#8674AA"/>
<path d="M164.006 180.977C163.983 181.282 163.866 181.573 163.67 181.816C163.474 182.058 163.208 182.24 162.904 182.34C162.6 182.439 162.273 182.451 161.962 182.375C161.651 182.299 161.371 182.137 161.155 181.91C160.94 181.684 160.799 181.402 160.75 181.099C160.702 180.797 160.747 180.488 160.881 180.21C161.015 179.932 161.232 179.698 161.505 179.536C161.777 179.374 162.093 179.293 162.414 179.301C162.857 179.326 163.271 179.516 163.569 179.829C163.867 180.142 164.023 180.554 164.006 180.977Z" fill="#8674AA"/>
<path d="M169.076 180.999C169.052 181.304 168.935 181.596 168.739 181.838C168.543 182.081 168.277 182.263 167.974 182.362C167.67 182.462 167.343 182.474 167.032 182.398C166.721 182.321 166.44 182.16 166.225 181.933C166.01 181.706 165.869 181.424 165.82 181.122C165.771 180.82 165.817 180.51 165.951 180.233C166.085 179.955 166.302 179.72 166.574 179.559C166.847 179.397 167.163 179.315 167.484 179.323C167.927 179.349 168.341 179.538 168.639 179.852C168.936 180.165 169.093 180.577 169.076 180.999Z" fill="#8674AA"/>
<path d="M174.145 181.015C174.123 181.32 174.008 181.613 173.813 181.856C173.618 182.099 173.352 182.283 173.048 182.383C172.745 182.484 172.417 182.497 172.105 182.422C171.794 182.346 171.513 182.185 171.297 181.959C171.08 181.732 170.939 181.45 170.89 181.147C170.84 180.845 170.885 180.535 171.019 180.257C171.153 179.978 171.37 179.744 171.643 179.582C171.916 179.42 172.232 179.338 172.554 179.346C172.995 179.372 173.408 179.56 173.706 179.872C174.003 180.184 174.161 180.594 174.145 181.015Z" fill="#8674AA"/>
<path d="M179.223 181.037C179.201 181.341 179.087 181.632 178.894 181.875C178.7 182.118 178.437 182.301 178.136 182.403C177.834 182.505 177.508 182.521 177.198 182.448C176.887 182.376 176.606 182.219 176.388 181.996C176.17 181.773 176.025 181.494 175.971 181.194C175.917 180.894 175.957 180.585 176.085 180.306C176.213 180.027 176.423 179.789 176.691 179.623C176.959 179.456 177.272 179.368 177.591 179.369C178.04 179.385 178.463 179.569 178.769 179.882C179.075 180.194 179.238 180.61 179.223 181.037Z" fill="#8674AA"/>
<path d="M184.293 181.06C184.308 181.274 184.278 181.488 184.202 181.69C184.127 181.892 184.009 182.077 183.856 182.234C183.703 182.391 183.517 182.516 183.311 182.601C183.104 182.687 182.882 182.731 182.657 182.731C182.432 182.731 182.21 182.687 182.003 182.601C181.797 182.516 181.611 182.391 181.458 182.234C181.305 182.077 181.187 181.892 181.112 181.69C181.037 181.488 181.006 181.274 181.022 181.06C181.006 180.846 181.037 180.631 181.112 180.429C181.187 180.227 181.305 180.042 181.458 179.886C181.611 179.729 181.797 179.604 182.003 179.518C182.21 179.433 182.432 179.389 182.657 179.389C182.882 179.389 183.104 179.433 183.311 179.518C183.517 179.604 183.703 179.729 183.856 179.886C184.009 180.042 184.127 180.227 184.202 180.429C184.278 180.631 184.308 180.846 184.293 181.06Z" fill="#8674AA"/>
<path d="M189.362 181.083C189.34 181.387 189.226 181.678 189.033 181.921C188.84 182.163 188.576 182.347 188.275 182.449C187.974 182.551 187.648 182.566 187.337 182.494C187.027 182.422 186.745 182.264 186.527 182.042C186.309 181.819 186.164 181.54 186.11 181.24C186.057 180.939 186.096 180.631 186.224 180.352C186.352 180.072 186.563 179.835 186.83 179.668C187.098 179.502 187.411 179.414 187.731 179.414C188.179 179.43 188.602 179.615 188.908 179.927C189.214 180.24 189.377 180.656 189.362 181.083Z" fill="#8674AA"/>
<path d="M194.432 181.105C194.41 181.411 194.294 181.703 194.099 181.947C193.904 182.19 193.638 182.374 193.335 182.474C193.031 182.575 192.703 182.588 192.392 182.513C192.081 182.437 191.799 182.276 191.583 182.05C191.367 181.823 191.225 181.541 191.176 181.238C191.127 180.936 191.172 180.626 191.306 180.348C191.44 180.069 191.657 179.835 191.929 179.673C192.202 179.511 192.519 179.429 192.84 179.437C193.281 179.463 193.695 179.651 193.992 179.963C194.289 180.274 194.447 180.684 194.432 181.105Z" fill="#8674AA"/>
<g opacity="0.2">
<path opacity="0.2" d="M153.859 180.931C153.835 181.236 153.718 181.528 153.522 181.77C153.327 182.012 153.06 182.195 152.757 182.294C152.453 182.393 152.126 182.406 151.815 182.33C151.504 182.253 151.223 182.092 151.008 181.865C150.793 181.638 150.652 181.356 150.603 181.054C150.555 180.751 150.6 180.442 150.734 180.164C150.868 179.886 151.085 179.652 151.357 179.49C151.63 179.329 151.946 179.247 152.267 179.255C152.71 179.279 153.126 179.468 153.424 179.782C153.722 180.095 153.878 180.508 153.859 180.931Z" fill="white"/>
<path opacity="0.2" d="M158.928 180.954C158.944 181.168 158.913 181.382 158.838 181.584C158.763 181.786 158.645 181.971 158.492 182.128C158.338 182.285 158.153 182.41 157.947 182.495C157.74 182.581 157.518 182.625 157.293 182.625C157.068 182.625 156.845 182.581 156.639 182.495C156.433 182.41 156.247 182.285 156.094 182.128C155.941 181.971 155.823 181.786 155.748 181.584C155.672 181.382 155.642 181.168 155.657 180.954C155.642 180.74 155.672 180.526 155.748 180.324C155.823 180.122 155.941 179.936 156.094 179.78C156.247 179.623 156.433 179.498 156.639 179.413C156.845 179.327 157.068 179.283 157.293 179.283C157.518 179.283 157.74 179.327 157.947 179.413C158.153 179.498 158.338 179.623 158.492 179.78C158.645 179.936 158.763 180.122 158.838 180.324C158.913 180.526 158.944 180.74 158.928 180.954Z" fill="white"/>
<path opacity="0.2" d="M164.006 180.977C163.983 181.282 163.866 181.573 163.67 181.816C163.474 182.058 163.208 182.24 162.904 182.34C162.6 182.439 162.273 182.451 161.962 182.375C161.651 182.299 161.371 182.137 161.155 181.91C160.94 181.684 160.799 181.402 160.75 181.099C160.702 180.797 160.747 180.488 160.881 180.21C161.015 179.932 161.232 179.698 161.505 179.536C161.777 179.374 162.093 179.293 162.414 179.301C162.857 179.326 163.271 179.516 163.569 179.829C163.867 180.142 164.023 180.554 164.006 180.977Z" fill="white"/>
<path opacity="0.2" d="M169.076 180.999C169.052 181.304 168.935 181.596 168.739 181.838C168.543 182.081 168.277 182.263 167.974 182.362C167.67 182.462 167.343 182.474 167.032 182.398C166.721 182.322 166.44 182.16 166.225 181.933C166.01 181.706 165.869 181.424 165.82 181.122C165.771 180.82 165.817 180.511 165.951 180.233C166.085 179.955 166.302 179.72 166.574 179.559C166.847 179.397 167.163 179.315 167.484 179.323C167.927 179.349 168.341 179.539 168.639 179.852C168.936 180.165 169.093 180.577 169.076 180.999Z" fill="white"/>
<path opacity="0.2" d="M174.145 181.014C174.123 181.32 174.008 181.613 173.813 181.856C173.617 182.099 173.352 182.283 173.048 182.383C172.745 182.484 172.417 182.497 172.105 182.422C171.794 182.346 171.513 182.185 171.296 181.959C171.08 181.732 170.939 181.45 170.89 181.147C170.84 180.845 170.885 180.535 171.019 180.257C171.153 179.978 171.37 179.744 171.643 179.582C171.916 179.42 172.232 179.338 172.554 179.346C172.995 179.372 173.408 179.56 173.705 179.872C174.003 180.184 174.161 180.594 174.145 181.014Z" fill="white"/>
<path opacity="0.2" d="M179.223 181.037C179.201 181.341 179.087 181.632 178.894 181.875C178.7 182.118 178.437 182.302 178.136 182.403C177.834 182.505 177.508 182.521 177.198 182.449C176.887 182.376 176.606 182.219 176.388 181.996C176.17 181.773 176.025 181.495 175.971 181.194C175.917 180.894 175.957 180.585 176.085 180.306C176.213 180.027 176.423 179.79 176.691 179.623C176.959 179.457 177.272 179.368 177.591 179.369C178.04 179.385 178.463 179.569 178.769 179.882C179.075 180.195 179.238 180.61 179.223 181.037Z" fill="white"/>
<path opacity="0.2" d="M184.293 181.06C184.308 181.274 184.278 181.488 184.202 181.69C184.127 181.892 184.009 182.077 183.856 182.234C183.703 182.391 183.517 182.516 183.311 182.601C183.104 182.687 182.882 182.731 182.657 182.731C182.432 182.731 182.21 182.687 182.003 182.601C181.797 182.516 181.611 182.391 181.458 182.234C181.305 182.077 181.187 181.892 181.112 181.69C181.037 181.488 181.006 181.274 181.022 181.06C181.006 180.846 181.037 180.632 181.112 180.43C181.187 180.228 181.305 180.042 181.458 179.886C181.611 179.729 181.797 179.604 182.003 179.519C182.21 179.433 182.432 179.389 182.657 179.389C182.882 179.389 183.104 179.433 183.311 179.519C183.517 179.604 183.703 179.729 183.856 179.886C184.009 180.042 184.127 180.228 184.202 180.43C184.278 180.632 184.308 180.846 184.293 181.06Z" fill="white"/>
<path opacity="0.2" d="M189.362 181.083C189.34 181.387 189.226 181.678 189.033 181.92C188.84 182.163 188.576 182.347 188.275 182.449C187.974 182.551 187.648 182.566 187.337 182.494C187.027 182.422 186.745 182.264 186.527 182.041C186.309 181.819 186.164 181.54 186.11 181.24C186.057 180.939 186.096 180.631 186.224 180.351C186.352 180.072 186.563 179.835 186.83 179.668C187.098 179.502 187.411 179.414 187.731 179.414C188.179 179.43 188.602 179.615 188.908 179.927C189.214 180.24 189.377 180.655 189.362 181.083Z" fill="white"/>
<path opacity="0.2" d="M194.432 181.105C194.41 181.411 194.294 181.703 194.099 181.947C193.904 182.19 193.638 182.374 193.335 182.474C193.031 182.575 192.703 182.588 192.392 182.513C192.081 182.437 191.799 182.276 191.583 182.05C191.367 181.823 191.225 181.541 191.176 181.238C191.127 180.936 191.172 180.626 191.306 180.348C191.44 180.069 191.657 179.835 191.929 179.673C192.202 179.511 192.519 179.429 192.84 179.437C193.281 179.463 193.695 179.651 193.992 179.963C194.289 180.274 194.447 180.684 194.432 181.105Z" fill="white"/>
</g>
<path d="M187.229 71.6324C187.782 71.4004 188.251 71.0186 188.578 70.5346C188.905 70.0505 189.075 69.4855 189.068 68.91C189.088 68.5358 189.029 68.1616 188.893 67.8101C188.757 67.4585 188.547 67.1371 188.276 66.8653C188.006 66.5935 187.68 66.3771 187.318 66.2292C186.957 66.0813 186.568 66.005 186.175 66.005C185.782 66.005 185.392 66.0813 185.031 66.2292C184.67 66.3771 184.344 66.5935 184.073 66.8653C183.803 67.1371 183.593 67.4585 183.457 67.8101C183.321 68.1616 183.261 68.5358 183.282 68.91C183.27 69.4913 183.439 70.063 183.767 70.553C184.096 71.0429 184.569 71.4291 185.128 71.6627C180.671 72.2997 180.87 76.9104 180.87 76.9104L191.408 76.9559C191.408 76.9559 191.654 72.2618 187.229 71.6324Z" fill="#8674AA"/>
<path opacity="0.1" d="M187.229 71.6324C187.782 71.4004 188.251 71.0186 188.578 70.5346C188.905 70.0505 189.075 69.4855 189.068 68.91C189.088 68.5358 189.029 68.1616 188.893 67.8101C188.757 67.4585 188.547 67.1371 188.276 66.8653C188.006 66.5935 187.68 66.3771 187.318 66.2292C186.957 66.0813 186.568 66.005 186.175 66.005C185.782 66.005 185.392 66.0813 185.031 66.2292C184.67 66.3771 184.344 66.5935 184.073 66.8653C183.803 67.1371 183.593 67.4585 183.457 67.8101C183.321 68.1616 183.261 68.5358 183.282 68.91C183.27 69.4913 183.439 70.063 183.767 70.553C184.096 71.0429 184.569 71.4291 185.128 71.6627C180.671 72.2997 180.87 76.9104 180.87 76.9104L191.408 76.9559C191.408 76.9559 191.654 72.2618 187.229 71.6324Z" fill="black"/>
<path d="M204.352 79.9296L166.796 79.7672L166.775 84.0442L204.331 84.2066L204.352 79.9296Z" fill="#8674AA"/>
<path opacity="0.2" d="M204.352 79.9296L166.796 79.7672L166.775 84.0442L204.331 84.2066L204.352 79.9296Z" fill="white"/>
<path d="M66.2822 102.095H65.9082L64.8258 102.17C64.24 102.204 63.6576 102.277 63.0829 102.39C62.7106 102.44 62.3414 102.508 61.9766 102.595L60.743 102.921C58.6434 103.535 56.6624 104.47 54.8775 105.689C52.5193 107.32 50.5501 109.408 49.0996 111.816C48.247 113.205 47.5685 114.683 47.0781 116.222C46.5628 117.895 46.266 119.622 46.1947 121.364C46.1472 122.279 46.1632 123.196 46.2424 124.109C46.2424 124.572 46.3777 125.034 46.4414 125.504C46.4949 125.978 46.5881 126.447 46.7199 126.907C47.4356 129.95 48.8877 132.792 50.9604 135.205C53.0331 137.619 55.669 139.537 58.6579 140.808C60.8211 141.697 63.1397 142.193 65.4943 142.271C67.9263 142.399 70.3606 142.066 72.6571 141.293L73.3574 141.043H73.4529L73.5325 141.088L83.5683 145.941L83.2739 146.184C82.1995 143.014 81.1648 139.943 80.162 136.993V136.879L80.2496 136.796C82.6841 134.459 84.4914 131.598 85.5182 128.454C86.4482 125.58 86.7196 122.549 86.3141 119.567C85.9533 116.916 85.0589 114.356 83.6798 112.029C82.491 110.029 80.9574 108.235 79.1433 106.72C77.6467 105.522 75.9902 104.517 74.217 103.733C72.8752 103.181 71.4779 102.762 70.0466 102.481L68.4549 102.231L67.3009 102.148L66.6006 102.102H66.3618C66.4411 102.094 66.5212 102.094 66.6006 102.102H67.3089L68.4629 102.148L70.0546 102.368C71.5036 102.628 72.9201 103.032 74.2806 103.573C76.0843 104.349 77.7707 105.351 79.2946 106.554C81.142 108.061 82.7081 109.856 83.9265 111.862C85.3447 114.215 86.2667 116.809 86.6404 119.498C87.0795 122.527 86.8271 125.61 85.9002 128.538C84.8667 131.747 83.0315 134.669 80.552 137.054L80.5998 136.857C81.6026 139.807 82.6451 142.878 83.7275 146.04L83.8787 146.503L83.4251 146.283L73.3893 141.437H73.5644L72.8481 141.687C70.5074 142.472 68.028 142.812 65.55 142.688C63.1447 142.601 60.7776 142.087 58.5703 141.172C54.36 139.453 50.857 136.467 48.5982 132.671C47.5587 130.917 46.7996 129.026 46.3459 127.059C46.2216 126.587 46.1286 126.109 46.0673 125.626C46.0037 125.148 45.9002 124.678 45.8763 124.208C45.6609 121.509 45.9602 118.796 46.7597 116.2C47.2624 114.639 47.9598 113.142 48.8369 111.741C50.3221 109.311 52.3323 107.209 54.7343 105.575C56.5485 104.353 58.5628 103.425 60.6953 102.83L61.9448 102.527C62.3125 102.446 62.6844 102.382 63.059 102.337C63.6397 102.235 64.2276 102.174 64.8178 102.155L65.9082 102.117C66.0321 102.101 66.1571 102.094 66.2822 102.095Z" fill="#8674AA"/>
<path d="M70.8186 119.779H69.3463L66.1629 115.517V112.719C66.1629 112.719 63.8867 112.582 64.1573 116.245C64.4279 119.908 64.1573 118.975 64.1573 118.975C64.1573 118.975 59.3264 118.975 58.9285 119.392C58.5305 119.809 58.5067 124.253 58.451 126.733C58.4205 127.331 58.6005 127.921 58.9624 128.41C59.3243 128.899 59.8474 129.259 60.4486 129.433C60.6171 129.477 60.791 129.5 60.9659 129.501C62.1756 129.501 68.3276 128.568 68.3276 128.568H70.8664L70.8186 119.779Z" fill="#8674AA"/>
<path d="M75.0288 119.028L74.1215 128.614H71.6066V119.225L75.0288 119.028Z" fill="#8674AA"/>
<path d="M105.025 314.17V307.687L92.8242 307.603L92.7207 317.408L93.4768 317.461C96.8433 317.666 110.604 317.97 112.864 317.302C115.379 316.559 105.025 314.17 105.025 314.17Z" fill="#8674AA"/>
<path d="M113.15 316.696C113.15 316.802 108.582 316.893 102.955 316.893C97.3287 316.893 92.7605 316.802 92.7605 316.696C92.7605 316.589 97.3287 316.498 102.955 316.498C108.582 316.498 113.15 316.589 113.15 316.696Z" fill="#263238"/>
<path d="M105.24 315.497C105.136 315.444 105.24 315.103 105.486 314.739C105.733 314.375 106.067 314.223 106.147 314.299C106.227 314.375 106.059 314.663 105.821 314.974C105.582 315.285 105.343 315.551 105.24 315.497Z" fill="#263238"/>
<path d="M106.02 315.922C105.908 315.922 105.964 315.497 106.203 315.095C106.441 314.694 106.76 314.451 106.847 314.512C106.935 314.572 106.792 314.913 106.569 315.27C106.346 315.626 106.123 315.96 106.02 315.922Z" fill="#263238"/>
<path d="M96.4375 316.665C96.3897 316.665 96.2067 316.529 95.9441 316.241C95.6234 315.87 95.2663 315.53 94.8776 315.224C94.4953 314.933 94.0399 314.743 93.5565 314.671C93.1824 314.625 92.9437 314.671 92.9198 314.625C92.8959 314.58 93.1267 314.421 93.5644 314.39C94.1421 314.379 94.7056 314.561 95.1561 314.906C95.5783 315.234 95.9342 315.632 96.2067 316.081C96.3897 316.415 96.4852 316.635 96.4375 316.665Z" fill="#263238"/>
<path d="M105.279 314.276C105.335 314.367 105.128 314.595 104.778 314.716C104.428 314.838 104.117 314.792 104.102 314.716C104.086 314.64 104.332 314.481 104.635 314.375C104.937 314.269 105.216 314.185 105.279 314.276Z" fill="#263238"/>
<path d="M105.088 313.647C105.088 313.761 104.77 313.852 104.356 313.86C103.942 313.867 103.616 313.776 103.624 313.67C103.632 313.564 103.958 313.465 104.356 313.458C104.754 313.45 105.073 313.541 105.088 313.647Z" fill="#263238"/>
<path d="M135.069 314.17V307.687L122.868 307.603L122.765 317.31L123.521 317.363C126.887 317.568 140.655 317.97 142.908 317.302C145.423 316.559 135.069 314.17 135.069 314.17Z" fill="#8674AA"/>
<path d="M143.194 316.711C143.194 316.817 138.634 316.908 132.999 316.908C127.365 316.908 122.812 316.817 122.812 316.711C122.812 316.605 127.373 316.514 132.999 316.514C138.626 316.514 143.194 316.605 143.194 316.711Z" fill="#263238"/>
<path d="M135.283 315.497C135.188 315.444 135.283 315.103 135.53 314.739C135.777 314.375 136.111 314.223 136.191 314.299C136.27 314.375 136.103 314.663 135.864 314.974C135.626 315.285 135.387 315.551 135.283 315.497Z" fill="#263238"/>
<path d="M136.063 315.922C135.96 315.922 136.008 315.497 136.254 315.095C136.501 314.694 136.812 314.451 136.899 314.512C136.987 314.572 136.835 314.913 136.613 315.27C136.39 315.626 136.175 315.96 136.063 315.922Z" fill="#263238"/>
<path d="M126.481 316.665C126.433 316.665 126.258 316.529 125.988 316.241C125.667 315.87 125.31 315.53 124.921 315.224C124.539 314.933 124.084 314.743 123.6 314.671C123.234 314.625 122.987 314.671 122.963 314.625C122.94 314.58 123.17 314.421 123.608 314.39C124.186 314.379 124.749 314.561 125.2 314.906C125.624 315.232 125.98 315.63 126.25 316.081C126.433 316.415 126.529 316.635 126.481 316.665Z" fill="#263238"/>
<path d="M135.323 314.276C135.379 314.367 135.172 314.595 134.822 314.716C134.472 314.838 134.161 314.792 134.145 314.716C134.129 314.64 134.376 314.481 134.679 314.375C134.981 314.269 135.26 314.185 135.323 314.276Z" fill="#263238"/>
<path d="M135.148 313.647C135.148 313.761 134.83 313.852 134.416 313.86C134.002 313.867 133.684 313.776 133.692 313.67C133.7 313.564 134.018 313.465 134.416 313.458C134.814 313.45 135.148 313.541 135.148 313.647Z" fill="#263238"/>
<path d="M180.019 121.629C179.7 121.318 178.913 121.47 178.913 121.47C178.992 121.033 178.992 120.587 178.913 120.151C178.769 119.726 177.767 119.809 177.767 119.809C177.72 119.452 177.72 119.09 177.767 118.732C177.774 118.653 177.757 118.574 177.715 118.504C177.674 118.435 177.611 118.38 177.536 118.346C177.061 118.161 176.552 118.074 176.039 118.088C175.427 117.671 177.91 114.357 178.833 113.295C179.756 112.234 179.589 111.407 178.769 111.407C178.204 111.407 175.307 114.592 174.416 115.661C173.525 116.73 171.161 119.703 171.081 117.33C171.002 114.956 169.999 113.166 169.37 112.863C168.741 112.56 168.073 113.272 168.415 113.932C168.716 114.682 168.903 115.468 168.972 116.268C169.059 116.905 169.029 117.551 168.885 118.179C168.621 119.346 168.262 120.492 167.81 121.607H167.747C167.747 121.607 150.381 137.479 149.123 138.608C148.001 139.625 125.431 137.403 120.902 136.948C119.363 136.733 117.81 136.632 116.254 136.644C114.289 136.728 113.938 136.993 111.981 137.016C107.036 137.068 102.103 137.481 97.2253 138.252C95.0165 138.61 92.9533 139.539 91.2607 140.938C89.5682 142.336 88.3113 144.151 87.6272 146.184C83.067 159.758 72.7367 191.889 70.9142 209.937C69.537 212.317 68.2937 214.765 67.1895 217.27C65.9082 220.592 66.2186 220.706 66.6483 220.782C67.8103 220.986 69.1314 215.026 69.6249 216.467C70.1183 217.907 67.1179 223.572 68.3356 223.739C69.9273 223.951 71.1927 217.672 71.3439 217.172C71.4951 216.671 72.283 216.831 72.1398 217.301C71.909 217.968 69.6726 225.043 71.2325 225.271C72.092 225.392 72.1875 223.898 72.1875 223.898C72.1875 223.898 73.7793 217.126 74.5035 217.263C75.2277 217.399 74.4557 221.396 74.0896 222.73C73.7235 224.065 74.2329 224.74 74.981 224.414C75.4904 224.186 76.708 220.129 77.0423 218.81C77.3766 217.49 78.2122 213.835 79.3344 215.951C80.4565 218.067 82.1597 219.295 82.86 219.326C83.0179 219.308 83.1666 219.246 83.2872 219.148C83.4077 219.049 83.4946 218.918 83.5365 218.772C83.5784 218.626 83.5736 218.472 83.5225 218.328C83.4715 218.185 83.3765 218.06 83.25 217.968C82.6476 217.408 82.1306 216.769 81.714 216.072C81.3427 215.529 81.0734 214.929 80.9181 214.298C80.5974 213.04 80.4108 211.754 80.361 210.461L80.2337 209.702C82.0164 201.292 87.1497 176.609 94.5592 160.843L97.5994 166.803L98.9205 171.217L90.8187 190.274L125.375 189.842L120.218 170.929L126.481 151.212C133.254 151.356 150.644 151.599 153.54 150.347C157.186 148.831 176.039 126.141 176.039 126.141C177.268 125.231 178.445 124.259 179.565 123.229C179.565 123.229 180.711 122.312 180.019 121.629Z" fill="#FFBE9D"/>
<path d="M89.2985 176.191C90.3013 172.931 95.4505 156.808 95.4505 156.808C95.4505 156.808 97.9814 169.95 97.3128 171.535C96.6979 172.892 95.9714 174.2 95.1401 175.448C89.2985 183.919 90.0625 188.158 90.0625 188.158L125.359 187.134C125.439 182.432 122.518 171.497 121.913 169.753C121.308 168.009 123.322 162.299 123.322 162.299C123.322 162.299 127.301 158.439 127.158 156.452C127.082 154.667 126.85 152.892 126.465 151.144L147.953 151.902L147.277 138.024L116.414 135.082C115.339 137.971 105.622 136.553 105.622 136.553C95.1322 136.887 94.4796 138.722 90.1182 141.953C85.7569 145.183 78.5385 172.908 78.5385 172.908L89.2985 176.191Z" fill="#8674AA"/>
<path d="M110.166 172.908C109.554 173.012 108.931 173.042 108.312 172.999C107.158 172.999 105.574 172.923 103.831 172.756C102.088 172.589 100.512 172.354 99.3901 172.142C98.7713 172.066 98.1646 171.918 97.5835 171.702C98.2057 171.702 98.8266 171.758 99.4379 171.869C100.568 172.005 102.136 172.195 103.871 172.362C105.606 172.529 107.182 172.642 108.32 172.718C108.94 172.726 109.558 172.789 110.166 172.908Z" fill="#263238"/>
<path d="M112.586 170.049C111.974 170.335 111.327 170.546 110.66 170.678C107.484 171.473 104.208 171.843 100.926 171.778C100.247 171.799 99.5677 171.738 98.9047 171.596C99.575 171.515 100.251 171.482 100.926 171.497C102.176 171.459 103.895 171.376 105.789 171.164C107.683 170.951 109.37 170.648 110.564 170.405C111.227 170.237 111.903 170.117 112.586 170.049Z" fill="#263238"/>
<path d="M124.46 157.294C124.444 157.872 124.361 158.446 124.213 159.007C124.006 160.061 123.688 161.502 123.282 163.08C122.876 164.657 122.486 166.113 122.136 167.099C121.995 167.663 121.787 168.21 121.515 168.729C121.559 168.153 121.671 167.583 121.849 167.031C122.152 165.848 122.494 164.483 122.876 162.989C123.258 161.495 123.624 160.13 123.926 158.947C124.034 158.377 124.213 157.822 124.46 157.294Z" fill="#263238"/>
<path d="M89.6727 174.258C87.8315 173.987 86.0144 173.584 84.2369 173.052C82.4207 172.647 80.6384 172.115 78.9047 171.459C80.745 171.735 82.5617 172.138 84.3404 172.665C86.1571 173.068 87.9395 173.601 89.6727 174.258Z" fill="#263238"/>
<path d="M126.847 150.977C126.547 151.026 126.24 151.026 125.94 150.977C125.109 150.896 124.292 150.709 123.513 150.423C122.211 149.957 121.025 149.237 120.033 148.308C119.041 147.379 118.263 146.263 117.751 145.031C117.184 143.676 116.942 142.218 117.042 140.762C117.078 139.561 117.455 138.392 118.133 137.38C118.609 136.698 119.322 136.196 120.146 135.962C120.366 135.904 120.594 135.876 120.823 135.878C120.982 135.878 121.061 135.878 121.061 135.878C121.061 135.878 120.727 135.878 120.194 136.083C119.438 136.349 118.796 136.848 118.371 137.501C117.289 139.124 116.987 142.089 118.141 144.857C118.678 146.162 119.519 147.334 120.6 148.285C121.486 149.063 122.506 149.689 123.616 150.135C124.658 150.527 125.741 150.81 126.847 150.977Z" fill="#263238"/>
<path d="M145.399 151.629C145.2 149.303 145.136 146.969 145.208 144.637C145.145 142.307 145.22 139.975 145.431 137.653C145.63 139.976 145.694 142.307 145.622 144.637C145.689 146.97 145.614 149.304 145.399 151.629Z" fill="#263238"/>
<path d="M116.207 135.931C116.294 134.24 116.477 132.329 116.477 132.329C116.477 132.329 120.87 131.867 121.133 127.544C121.396 123.222 121.133 113.25 121.133 113.25L113.174 109.367L104.34 115.987L105.701 137.6L113.803 138.093C114.422 138.109 115.023 137.891 115.474 137.485C115.924 137.08 116.188 136.521 116.207 135.931Z" fill="#FFBE9D"/>
<path d="M116.995 124.124C116.995 124.124 116.995 124.208 116.923 124.306C116.864 124.378 116.787 124.434 116.7 124.471C116.612 124.508 116.517 124.525 116.422 124.519C115.912 124.519 115.419 123.957 115.244 123.305C115.16 122.989 115.16 122.658 115.244 122.342C115.26 122.204 115.312 122.072 115.396 121.958C115.479 121.844 115.591 121.752 115.721 121.69C115.828 121.648 115.948 121.648 116.055 121.69C116.135 121.727 116.199 121.789 116.239 121.864C116.294 121.993 116.239 122.077 116.239 122.069C116.239 122.062 116.239 121.993 116.159 121.917C116.117 121.863 116.056 121.825 115.987 121.811C115.918 121.797 115.846 121.808 115.785 121.842C115.687 121.898 115.606 121.977 115.549 122.071C115.492 122.165 115.461 122.271 115.459 122.38C115.392 122.662 115.392 122.955 115.459 123.237C115.618 123.828 116.048 124.306 116.43 124.352C116.504 124.361 116.58 124.356 116.653 124.337C116.725 124.317 116.793 124.283 116.851 124.238C116.947 124.177 116.979 124.117 116.995 124.124Z" fill="#EB996E"/>
<path d="M123.863 110.914C123.25 108.927 121.03 107.941 119.008 107.395C115.928 106.561 112.601 106.197 109.593 107.251C106.585 108.305 102.971 110.156 102.971 113.318C101.197 113.181 100.178 114.66 99.4776 116.495C99.0299 117.613 98.7616 118.789 98.6818 119.984C98.4589 124.124 97.2413 129.842 94.4239 132.875C92.8322 134.566 90.6277 135.734 89.7204 137.842C88.9245 139.67 89.3384 141.839 88.5982 143.689C87.9377 145.32 86.4812 146.48 85.4148 147.898C84.3283 149.507 83.6889 151.352 83.5566 153.261C83.4244 155.17 83.8036 157.08 84.6587 158.81C85.52 160.497 86.7325 161.999 88.2226 163.224C89.7126 164.45 91.4489 165.373 93.3256 165.939C97.0431 167.016 101.007 167.053 104.746 166.045C107.552 165.406 110.17 164.169 112.402 162.428C114.687 160.65 116.256 158.175 116.843 155.421C117.408 152.327 116.501 149.18 115.825 146.101C113.708 136.371 114.313 135.863 116.987 126.831C117.05 126.672 117.082 126.505 117.13 126.346C117.178 126.187 117.201 126.111 117.233 125.99C117.309 125.633 117.349 125.27 117.353 124.905C116.962 125.044 116.538 125.073 116.131 124.99C115.723 124.906 115.349 124.714 115.053 124.435C114.755 124.138 114.548 123.769 114.453 123.369C114.357 122.968 114.378 122.551 114.511 122.16C114.699 121.733 114.979 121.348 115.333 121.031C115.686 120.714 116.106 120.47 116.565 120.317C117.448 119.969 118.395 119.787 119.263 119.4C121.101 118.566 122.375 116.837 123.242 115.024C123.955 113.768 124.175 112.311 123.863 110.914Z" fill="#263238"/>
<path d="M117.313 124.329C117.481 124.566 117.62 124.82 117.727 125.087C117.966 125.565 118.284 126.24 118.634 127.021L118.698 127.165H118.531L117.735 127.234C117.186 127.234 116.724 127.332 116.183 127.325C116.136 127.314 116.092 127.293 116.056 127.263C116.02 127.232 115.992 127.193 115.976 127.15C115.952 127.081 115.952 127.007 115.976 126.938C115.994 126.836 116.018 126.734 116.048 126.634L116.191 126.096C116.263 125.737 116.375 125.386 116.525 125.05C116.51 125.416 116.454 125.779 116.358 126.134L116.246 126.672C116.207 126.854 116.135 127.135 116.246 127.112C116.644 127.112 117.209 127.029 117.735 126.998L118.531 126.93L118.427 127.097C118.085 126.339 117.798 125.626 117.631 125.133C117.485 124.881 117.377 124.61 117.313 124.329Z" fill="#8674AA"/>
<path d="M90.0626 188.158L125.359 187.134L140.719 244.267L137.894 309.802H119.231L121.515 245.662L107.866 205.888L109.967 312.343L91.1052 312.608L89.1235 212.546C89.0359 209.763 88.0809 203.491 88.439 200.731L90.0626 188.158Z" fill="#263238"/>
<path d="M112.562 206.699C111.984 206.734 111.404 206.701 110.835 206.601C109.768 206.479 108.312 206.267 106.712 205.964C105.112 205.66 103.68 205.312 102.645 205.031C102.092 204.915 101.557 204.732 101.053 204.485C101.053 204.371 103.648 204.963 106.831 205.577C110.015 206.191 112.578 206.586 112.562 206.699Z" fill="#455A64"/>
<path d="M137.703 306.208C137.703 306.314 133.477 306.405 128.264 306.405C123.051 306.405 118.817 306.314 118.817 306.208C118.817 306.102 123.043 306.011 128.264 306.011C133.485 306.011 137.703 306.094 137.703 306.208Z" fill="#455A64"/>
<path d="M109.8 309.575C109.8 309.688 105.693 309.772 100.632 309.772C95.5699 309.772 91.4712 309.688 91.4712 309.575C91.4712 309.461 95.5778 309.378 100.632 309.378C105.685 309.378 109.8 309.469 109.8 309.575Z" fill="#455A64"/>
<path d="M107.365 309.302C107.253 309.302 106.76 286.044 106.258 257.356C105.757 228.668 105.462 205.395 105.566 205.395C105.669 205.395 106.179 228.645 106.672 257.348C107.166 286.051 107.484 309.302 107.365 309.302Z" fill="#455A64"/>
<path d="M135.196 306.208C135.187 306.104 135.187 306 135.196 305.897V304.987C135.196 304.168 135.26 302.993 135.307 301.499C135.419 298.465 135.578 294.059 135.777 288.66C136.207 277.801 136.812 262.831 137.472 246.307C137.472 246.148 137.472 245.996 137.472 245.86V245.913C133.294 229.988 129.513 215.534 126.768 205.076L123.584 192.708C123.218 191.26 122.94 190.13 122.741 189.341C122.645 188.969 122.582 188.681 122.526 188.461C122.495 188.363 122.476 188.261 122.47 188.158C122.511 188.254 122.543 188.353 122.566 188.454C122.629 188.666 122.709 188.954 122.82 189.318C123.035 190.077 123.346 191.229 123.743 192.67C124.539 195.597 125.661 199.814 127.062 205.008C129.832 215.458 133.652 229.874 137.886 245.822V245.875C137.886 246.011 137.886 246.171 137.886 246.322C137.178 262.846 136.533 277.808 136.063 288.668C135.817 294.075 135.61 298.45 135.466 301.499C135.387 303.015 135.323 304.168 135.283 304.987C135.283 305.374 135.236 305.677 135.228 305.897C135.229 306.001 135.218 306.106 135.196 306.208Z" fill="#455A64"/>
<path d="M129.108 244.525C127.767 244.945 126.386 245.237 124.985 245.397C123.266 245.678 121.802 245.875 121.141 245.905V245.753C121.356 245.814 121.467 245.852 121.467 245.882C121.467 245.913 121.332 245.882 121.109 245.882H120.632L121.109 245.746C121.73 245.571 123.194 245.283 124.913 244.987C126.292 244.702 127.697 244.548 129.108 244.525Z" fill="#455A64"/>
<path d="M128.781 246.701C127.54 246.755 126.296 246.702 125.065 246.542C123.821 246.518 122.583 246.388 121.364 246.155C123.851 245.962 126.355 246.146 128.781 246.701Z" fill="#455A64"/>
<path opacity="0.2" d="M89.9114 189.364C90.3294 189.875 90.8559 190.297 91.4566 190.601C92.0572 190.906 92.7185 191.086 93.3972 191.131C94.8188 191.291 96.2567 191.266 97.671 191.055C106.784 190.092 116.437 189.204 125.359 187.134C113.811 187.748 101.611 187.544 90.0626 188.158L89.9432 189.098" fill="black"/>
<g opacity="0.2">
<path opacity="0.2" d="M101.809 204.872L108.32 228.941L107.866 205.888L101.809 204.872Z" fill="black"/>
</g>
</svg>
