<svg width="509" height="416" viewBox="0 0 509 416" fill="none" xmlns="http://www.w3.org/2000/svg">
<path d="M509 364.785H0V365.064H509V364.785Z" fill="#EBEBEB"/>
<path d="M457.998 382.713H424.282V382.991H457.998V382.713Z" fill="#EBEBEB"/>
<path d="M337.181 385.743H328.335V386.022H337.181V385.743Z" fill="#EBEBEB"/>
<path d="M423.265 372.373H403.729V372.651H423.265V372.373Z" fill="#EBEBEB"/>
<path d="M97.3712 374.245H53.4038V374.523H97.3712V374.245Z" fill="#EBEBEB"/>
<path d="M112.886 374.245H106.442V374.523H112.886V374.245Z" fill="#EBEBEB"/>
<path d="M229.202 378.947H133.836V379.225H229.202V378.947Z" fill="#EBEBEB"/>
<path d="M241.267 315.092H44.7011C43.1612 315.09 41.6853 314.418 40.5974 313.225C39.5095 312.032 38.8985 310.416 38.8985 308.73V6.30631C38.9119 4.6306 39.5288 3.02834 40.6153 1.84757C41.7018 0.666795 43.17 0.00287058 44.7011 0H241.267C242.808 0 244.287 0.670282 245.377 1.86339C246.467 3.0565 247.08 4.6747 247.08 6.36202V308.73C247.08 310.418 246.467 312.036 245.377 313.229C244.287 314.422 242.808 315.092 241.267 315.092ZM44.7011 0.222839C43.2287 0.22579 41.8176 0.868025 40.7774 2.00858C39.7372 3.14913 39.153 4.6948 39.153 6.30631V308.73C39.153 310.342 39.7372 311.888 40.7774 313.028C41.8176 314.169 43.2287 314.811 44.7011 314.814H241.267C242.74 314.811 244.152 314.169 245.194 313.029C246.236 311.889 246.822 310.343 246.825 308.73V6.30631C246.822 4.69378 246.236 3.14813 245.194 2.0079C244.152 0.867664 242.74 0.225784 241.267 0.222839H44.7011Z" fill="#EBEBEB"/>
<path d="M461.469 315.092H264.894C263.353 315.09 261.876 314.418 260.786 313.226C259.697 312.033 259.084 310.417 259.081 308.73V6.30631C259.097 4.62958 259.716 3.02734 260.804 1.84687C261.892 0.666406 263.362 0.00283928 264.894 0H461.469C462.999 0.00579879 464.464 0.671019 465.549 1.85148C466.633 3.03194 467.248 4.63252 467.262 6.30631V308.73C467.262 310.414 466.652 312.029 465.566 313.221C464.481 314.414 463.008 315.087 461.469 315.092ZM264.894 0.222839C263.42 0.225784 262.008 0.867664 260.966 2.0079C259.924 3.14813 259.338 4.69378 259.335 6.30631V308.73C259.338 310.343 259.924 311.889 260.966 313.029C262.008 314.169 263.42 314.811 264.894 314.814H461.469C462.943 314.811 464.355 314.169 465.397 313.029C466.439 311.889 467.025 310.343 467.028 308.73V6.30631C467.025 4.69378 466.439 3.14813 465.397 2.0079C464.355 0.867664 462.943 0.225784 461.469 0.222839H264.894Z" fill="#EBEBEB"/>
<path d="M220.316 70.1826H98.6035V364.785H220.316V70.1826Z" fill="#F0F0F0"/>
<path d="M220.315 70.1826H104.375V364.785H220.315V70.1826Z" fill="#F5F5F5"/>
<path d="M214.197 358.089L214.197 76.8567H110.473L110.473 358.089H214.197Z" fill="#F0F0F0"/>
<path d="M191.628 212.999H200.24C201.382 212.994 202.476 212.494 203.283 211.609C204.089 210.724 204.544 209.525 204.546 208.275C204.544 207.025 204.089 205.827 203.283 204.942C202.476 204.057 201.382 203.557 200.24 203.551H191.628C190.485 203.557 189.39 204.057 188.582 204.941C187.773 205.826 187.317 207.024 187.312 208.275C187.317 209.526 187.773 210.725 188.582 211.609C189.39 212.494 190.485 212.994 191.628 212.999Z" fill="white"/>
<path d="M214.208 358.1L214.208 76.8679H212.619L212.619 358.1H214.208Z" fill="#F0F0F0"/>
<path d="M317.321 238.191H289.652V359.649H317.321V238.191Z" fill="#F0F0F0"/>
<path d="M431.398 359.649H294.956V364.785H431.398V359.649Z" fill="#F0F0F0"/>
<path d="M317.321 359.649H436.722V238.191H317.321V359.649Z" fill="#F5F5F5"/>
<path d="M328.193 274.725H425.839V248.163H328.193V274.725Z" fill="#F0F0F0"/>
<path d="M328.193 349.688H425.839V282.659H328.193V349.688Z" fill="#F0F0F0"/>
<path d="M389.343 259.617H364.688C363.951 259.617 363.354 260.271 363.354 261.077V261.801C363.354 262.607 363.951 263.26 364.688 263.26H389.343C390.08 263.26 390.677 262.607 390.677 261.801V261.077C390.677 260.271 390.08 259.617 389.343 259.617Z" fill="#F5F5F5"/>
<path d="M389.343 312.998H364.688C363.951 312.998 363.354 313.651 363.354 314.457V315.182C363.354 315.988 363.951 316.641 364.688 316.641H389.343C390.08 316.641 390.677 315.988 390.677 315.182V314.457C390.677 313.651 390.08 312.998 389.343 312.998Z" fill="#F5F5F5"/>
<path d="M436.457 82.5725H397.417V163.128H436.457V82.5725Z" fill="#E6E6E6"/>
<path d="M445.202 82.5725H399.351V163.128H445.202V82.5725Z" fill="#F5F5F5"/>
<path d="M438.228 155.953V89.7144H406.334V155.953H438.228Z" fill="white"/>
<path d="M371.885 59.0183H332.845V139.574H371.885V59.0183Z" fill="#E6E6E6"/>
<path d="M380.62 59.0183H334.769V139.574H380.62V59.0183Z" fill="#F5F5F5"/>
<path d="M373.647 132.41V66.1716H341.753V132.41H373.647Z" fill="white"/>
<path d="M312.76 111.073H273.72V191.629H312.76V111.073Z" fill="#E6E6E6"/>
<path d="M321.515 111.073H275.654V191.629H321.515V111.073Z" fill="#F5F5F5"/>
<path d="M314.532 184.454V118.215H282.638V184.454H314.532Z" fill="white"/>
<path d="M254.499 415.102C363.509 415.102 451.88 409.455 451.88 402.489C451.88 395.524 363.509 389.877 254.499 389.877C145.489 389.877 57.1194 395.524 57.1194 402.489C57.1194 409.455 145.489 415.102 254.499 415.102Z" fill="#F5F5F5"/>
<path d="M304.2 100.4H119.606C116.857 100.4 114.628 102.839 114.628 105.848V249.946C114.628 252.955 116.857 255.394 119.606 255.394H304.2C306.949 255.394 309.178 252.955 309.178 249.946V105.848C309.178 102.839 306.949 100.4 304.2 100.4Z" fill="#263238"/>
<path d="M213.546 93.3801H210.269C209.611 93.3801 209.077 93.9638 209.077 94.6837V398.088C209.077 398.808 209.611 399.392 210.269 399.392H213.546C214.204 399.392 214.738 398.808 214.738 398.088V94.6837C214.738 93.9638 214.204 93.3801 213.546 93.3801Z" fill="#263238"/>
<path d="M205.84 393.197H217.955C219.213 393.197 220.419 393.744 221.309 394.718C222.199 395.692 222.699 397.012 222.699 398.39V399.025C222.699 399.122 222.663 399.216 222.6 399.285C222.537 399.354 222.452 399.392 222.363 399.392H201.432C201.343 399.392 201.258 399.354 201.195 399.285C201.132 399.216 201.097 399.122 201.097 399.025V398.39C201.097 397.012 201.596 395.692 202.486 394.718C203.376 393.744 204.582 393.197 205.84 393.197Z" fill="#263238"/>
<path d="M282.14 96.4999H265.852V97.6141H282.14V96.4999Z" fill="#8674AA"/>
<path d="M256.129 96.4999H251.151V97.6141H256.129V96.4999Z" fill="#8674AA"/>
<path d="M304.922 100.4H120.328C117.579 100.4 115.35 102.839 115.35 105.848V249.946C115.35 252.955 117.579 255.394 120.328 255.394H304.922C307.672 255.394 309.9 252.955 309.9 249.946V105.848C309.9 102.839 307.672 100.4 304.922 100.4Z" fill="#8674AA"/>
<path opacity="0.7" d="M304.811 245.122V110.672C304.811 108.076 302.888 105.971 300.515 105.971L124.737 105.971C122.365 105.971 120.441 108.076 120.441 110.672V245.122C120.441 247.718 122.365 249.823 124.737 249.823H300.515C302.888 249.823 304.811 247.718 304.811 245.122Z" fill="white"/>
<path opacity="0.2" d="M174.078 176.042C162.208 174.826 150.289 174.275 138.367 174.393C138.479 156.677 139.925 137.524 141.197 118.683L176.196 121.146C174.842 143.129 173.498 165.179 174.078 176.042Z" fill="black"/>
<path d="M174.751 175.251C162.881 174.029 150.961 173.479 139.04 173.602C139.152 155.875 139.895 137.536 141.167 118.683L176.879 120.332C175.545 142.315 174.201 164.376 174.751 175.251Z" fill="white"/>
<path opacity="0.2" d="M221.62 213.779L185.919 215.484L184.432 159.764L219.441 158.861L221.62 213.779Z" fill="black"/>
<path d="M220.132 158.082L184.424 159.782L186.606 214.693L222.314 212.993L220.132 158.082Z" fill="white"/>
<path opacity="0.2" d="M301.217 212.454L265.781 207.339L273.171 152.187L307.783 157.959L301.217 212.454Z" fill="black"/>
<path d="M308.59 157.32L273.155 152.2L266.583 206.69L302.018 211.81L308.59 157.32Z" fill="white"/>
<path opacity="0.2" d="M179.393 252.743C172.918 254.971 156.244 255.316 143.763 254.637C141.981 237.478 142.165 218.27 142.612 198.927L177.622 198.292C176.848 211.573 177.448 235.205 179.393 252.743Z" fill="black"/>
<path d="M180.105 251.94C173.621 254.169 156.946 254.503 144.475 253.823C142.707 235.582 142.088 217.229 142.623 198.894L178.334 197.445C177.55 210.771 178.151 234.403 180.105 251.94Z" fill="white"/>
<path opacity="0.2" d="M267.195 170.471L231.463 171.329C230.262 153.034 230.608 133.903 231.066 115.619H266.096C265.699 135.062 265.963 153.613 267.195 170.471Z" fill="black"/>
<path d="M267.898 169.646L232.166 170.504C230.971 152.209 230.612 133.892 231.087 115.553L266.819 114.695C266.432 134.26 266.717 152.8 267.898 169.646Z" fill="white"/>
<path d="M281.987 385.52L274.098 383.203L276.908 362.59L284.797 364.908L281.987 385.52Z" fill="#FF8B7B"/>
<path d="M354.967 393.353H346.792L340.43 372.64H348.604L354.967 393.353Z" fill="#FF8B7B"/>
<path d="M345.704 392.317H355.67C355.832 392.318 355.988 392.379 356.114 392.49C356.24 392.602 356.328 392.757 356.362 392.93L357.981 400.885C358.018 401.079 358.014 401.279 357.97 401.471C357.927 401.662 357.844 401.841 357.729 401.993C357.613 402.145 357.468 402.267 357.304 402.349C357.139 402.431 356.96 402.471 356.78 402.467C353.573 402.411 351.242 402.2 347.2 402.2C344.716 402.2 337.224 402.489 333.803 402.489C330.383 402.489 329.925 398.779 331.33 398.434C337.621 396.93 342.365 394.857 344.38 392.863C344.748 392.514 345.217 392.32 345.704 392.317Z" fill="#263238"/>
<path d="M274.403 382.222L283.015 384.752C283.172 384.799 283.309 384.903 283.405 385.046C283.501 385.19 283.55 385.365 283.544 385.543L283.219 393.676C283.213 393.873 283.167 394.066 283.083 394.24C282.999 394.414 282.88 394.565 282.734 394.681C282.589 394.798 282.421 394.876 282.244 394.91C282.067 394.944 281.885 394.934 281.712 394.88C278.658 393.91 274.169 392.384 270.259 391.236C265.689 389.899 261.678 389.008 256.323 387.437C253.086 386.49 253.065 382.635 254.501 382.713C261.036 383.047 266.116 384.373 272.336 382.334C273.002 382.086 273.718 382.047 274.403 382.222Z" fill="#263238"/>
<path d="M316.649 126.672C313.951 130.382 311.152 134.371 308.505 138.282C305.858 142.193 303.313 146.237 300.972 150.293C299.801 152.31 298.732 154.36 297.704 156.399L294.894 162.449L294.66 162.995C294.66 163.05 294.599 163.095 294.589 163.084C294.575 162.951 294.575 162.816 294.589 162.683C294.588 162.338 294.554 161.994 294.487 161.658C294.451 161.472 294.404 161.29 294.345 161.112C294.345 161 294.273 160.889 294.233 160.777C294.182 160.62 294.121 160.468 294.05 160.321C293.868 159.947 293.649 159.595 293.398 159.273C293.044 158.833 292.628 158.457 292.166 158.159C291.698 157.863 291.189 157.652 290.66 157.535C290.264 157.455 289.861 157.425 289.458 157.446C289.001 157.469 288.551 157.575 288.125 157.758C287.826 157.871 287.545 158.032 287.29 158.237C287.035 158.449 287.046 158.482 287.035 158.504C287.025 158.527 287.097 158.504 287.158 158.504C287.519 158.235 287.86 157.933 288.176 157.602C288.562 157.234 288.949 156.833 289.336 156.41C290.914 154.75 292.543 152.922 294.243 151.218L299.384 154.872C298.56 157.378 297.566 159.814 296.411 162.159C295.783 163.496 295.04 164.764 294.192 165.947C294.035 166.161 293.869 166.365 293.693 166.56C293.412 166.883 293.101 167.174 292.767 167.429C292.388 167.717 291.977 167.953 291.545 168.131C291.048 168.333 290.527 168.453 289.998 168.488C289.561 168.51 289.124 168.477 288.695 168.387C288.128 168.266 287.584 168.04 287.086 167.719C286.594 167.404 286.151 167.005 285.773 166.538C285.5 166.195 285.261 165.822 285.061 165.424C284.989 165.256 284.908 165.078 284.847 164.911L284.714 164.521C284.633 164.231 284.592 164.053 284.552 163.853C284.46 163.361 284.419 162.861 284.429 162.36C284.436 161.912 284.47 161.465 284.531 161.023C284.531 160.699 284.613 160.443 284.653 160.198C284.745 159.708 284.826 159.307 284.908 158.917C285.244 157.39 285.6 156.109 286.007 154.817C286.415 153.524 286.944 152.232 287.463 150.995C288.481 148.499 289.601 146.092 290.782 143.775C293.125 139.174 295.687 134.711 298.457 130.405C299.822 128.277 301.226 126.171 302.672 124.109C304.118 122.048 305.583 120.054 307.202 117.981L316.649 126.672Z" fill="#FF8B7B"/>
<path d="M321.088 120.11C322.838 128.433 306.133 149.747 306.133 149.747L291.148 137.736C294.475 130.83 298.468 124.335 303.059 118.36C309.92 109.87 319.163 110.962 321.088 120.11Z" fill="#8674AA"/>
<path opacity="0.2" d="M321.088 120.11C322.838 128.433 306.133 149.747 306.133 149.747L291.148 137.736C294.475 130.83 298.468 124.335 303.059 118.36C309.92 109.87 319.163 110.962 321.088 120.11Z" fill="black"/>
<path opacity="0.2" d="M276.907 362.59L275.451 373.22L283.351 375.537L284.796 364.908L276.907 362.59Z" fill="black"/>
<path opacity="0.2" d="M348.604 372.652H340.43L343.718 383.326H351.892L348.604 372.652Z" fill="black"/>
<path d="M357.644 118.862C347.006 152.198 346.812 188.298 345.621 195.54C339.269 194.615 315.346 191.083 302.305 189.156C299.374 137.97 312.221 112.611 312.221 112.611C312.221 112.611 315.051 112.199 318.878 112.02C320.08 112.02 321.373 111.931 322.716 111.942C323.459 111.942 324.213 111.942 324.976 111.998C331.158 112.533 337.307 113.455 343.392 114.761C344.542 114.995 345.713 115.263 346.843 115.541C347.973 115.82 348.879 116.087 349.897 116.366C354.264 117.58 357.644 118.862 357.644 118.862Z" fill="#8674AA"/>
<path opacity="0.2" d="M357.644 118.862C347.006 152.198 346.812 188.298 345.621 195.54C339.269 194.615 315.346 191.083 302.305 189.156C299.374 137.97 312.221 112.611 312.221 112.611C312.221 112.611 315.051 112.199 318.878 112.02C320.08 112.02 321.373 111.931 322.716 111.942C323.459 111.942 324.213 111.942 324.976 111.998C331.158 112.533 337.307 113.455 343.392 114.761C344.542 114.995 345.713 115.263 346.843 115.541C347.973 115.82 348.879 116.087 349.897 116.366C354.264 117.58 357.644 118.862 357.644 118.862Z" fill="black"/>
<path opacity="0.2" d="M347.689 134.215C345.969 139.24 347.312 153.156 349.196 157.903C349.868 152.933 350.692 147.719 351.731 142.371L347.689 134.215Z" fill="black"/>
<path d="M294.325 150.572L300.8 143.886L305.014 154.338C303.847 155.646 302.33 156.513 300.683 156.813C299.035 157.114 297.343 156.832 295.852 156.009L294.325 150.572Z" fill="#FF8B7B"/>
<path d="M305.553 140.41L308.79 149.658L305.013 154.282L300.799 143.831L305.553 140.41Z" fill="#FF8B7B"/>
<path d="M344.36 91.7534C342.395 98.0709 339.779 109.781 343.393 114.717C339.738 117.747 335.025 121.168 327.96 120.399C320.895 119.63 322.778 114.516 324.977 111.998C331.798 111.252 332.286 105.859 331.757 100.645L344.36 91.7534Z" fill="#FF8B7B"/>
<path d="M323.725 110.305C323.725 108.544 330.342 107.063 330.596 108.734C330.851 110.405 328.56 110.962 329.283 113.191C330.006 115.419 336.674 115.642 339.341 112.489C341.112 110.383 341.672 108.266 343.922 109.659C346.172 111.051 348.88 113.001 347.393 116.065C345.907 119.129 337.519 126.371 329.884 124.511C322.249 122.65 320.121 118.16 321.608 116.21C322.901 114.559 323.647 112.478 323.725 110.305Z" fill="#8674AA"/>
<path opacity="0.2" d="M339.219 95.3859L331.757 100.645C331.901 101.856 331.946 103.079 331.889 104.299C333.383 104.232 334.839 103.761 336.126 102.929C337.414 102.097 338.494 100.93 339.269 99.5306C340.125 97.7368 339.839 95.6978 339.219 95.3859Z" fill="black"/>
<path d="M345.592 80.6117C344.869 89.4584 344.849 94.6728 340.644 99.0961C334.322 105.781 324.438 101.324 322.738 92.4778C321.211 84.4668 322.656 71.3082 330.658 68.0771C332.42 67.3421 334.326 67.1131 336.192 67.4116C338.058 67.7102 339.824 68.5264 341.321 69.7828C342.818 71.0391 343.996 72.6937 344.743 74.5891C345.491 76.4846 345.783 78.5578 345.592 80.6117Z" fill="#FF8B7B"/>
<path d="M346.212 73.5365C340.267 73.0462 339.768 84.3441 344.685 89.2019C350.63 86.6505 358.937 74.5281 346.212 73.5365Z" fill="#263238"/>
<path d="M340.328 75.2968C336.847 69.2802 330.148 78.8177 326.84 72.244C324.854 68.2886 321.465 72.5782 319.398 70.205C317.331 67.8318 320.528 61.4586 322.686 60.8904C321.475 62.3277 321.241 67.4641 324.875 64.9237C328.509 62.3834 331.115 59.7539 335.564 64.0212C340.013 68.2886 344.665 59.7093 348.747 66.2496C352.33 71.932 344.451 82.4499 340.328 75.2968Z" fill="#263238"/>
<path d="M347.057 74.3608C346.102 74.357 345.153 74.1877 344.247 73.8594C344.199 73.8433 344.155 73.8172 344.117 73.7824C344.079 73.7477 344.047 73.705 344.024 73.6569C344.001 73.6088 343.987 73.5562 343.982 73.502C343.978 73.4479 343.983 73.3933 343.997 73.3413C344.012 73.2894 344.036 73.2411 344.068 73.1993C344.1 73.1575 344.139 73.1229 344.182 73.0975C344.226 73.0722 344.274 73.0566 344.324 73.0516C344.373 73.0465 344.423 73.0523 344.471 73.0684C347.077 73.9708 349.612 73.4917 350.772 71.8873C351.678 70.6394 351.607 68.9236 350.599 67.0629C350.548 66.9683 350.533 66.8553 350.558 66.7488C350.583 66.6422 350.645 66.5508 350.731 66.4946C350.818 66.4385 350.921 66.4222 351.018 66.4494C351.116 66.4765 351.199 66.5449 351.251 66.6395C352.421 68.7787 352.462 70.8845 351.373 72.3998C350.835 73.0619 350.168 73.5822 349.42 73.9218C348.673 74.2614 347.865 74.4115 347.057 74.3608Z" fill="#263238"/>
<path d="M348.992 90.4946C347.853 92.3455 346.094 93.6306 344.095 94.0711C341.438 94.6171 340.339 91.9653 341.265 89.347C342.1 86.996 344.492 83.8763 347.068 84.5003C349.643 85.1242 350.366 88.1994 348.992 90.4946Z" fill="#FF8B7B"/>
<path d="M272.539 370.044L285.895 373.966C285.895 373.966 298.61 322.424 302.631 294.859C303.852 286.491 306.581 274.904 309.879 262.547C314.032 246.949 319.092 230.147 323.194 216.988C327.531 203.128 330.779 193.334 330.779 193.334L302.275 189.134C302.275 189.134 280.581 261.923 278.138 289.087C275.623 317.354 272.539 370.044 272.539 370.044Z" fill="#263238"/>
<path opacity="0.2" d="M309.88 262.57C314.033 246.971 319.093 230.169 323.195 217.01L320.671 209.802C313.005 218.537 309.412 246.96 309.88 262.57Z" fill="black"/>
<path d="M317.666 191.429C317.666 191.429 316.262 268.051 318.175 294.168C320.283 322.78 339.869 381.253 339.869 381.253H354.834C354.834 381.253 344.847 327.772 341.793 299.917C338.301 268.274 345.621 195.518 345.621 195.518L317.666 191.429Z" fill="#263238"/>
<path d="M338.079 381.61H355.7V375.849L336.002 375.47L338.079 381.61Z" fill="#8674AA"/>
<path d="M270.779 369.888L286.701 374.568L288.085 368.941L271.247 363.693L270.779 369.888Z" fill="#8674AA"/>
<path d="M333.253 82.7173C333.253 83.4304 332.876 84.0098 332.439 83.9986C332.001 83.9875 331.675 83.3858 331.695 82.6616C331.716 81.9374 332.082 81.3691 332.51 81.3803C332.937 81.3914 333.273 81.9931 333.253 82.7173Z" fill="#263238"/>
<path d="M325.812 82.4498C325.812 83.174 325.425 83.7422 324.998 83.7311C324.57 83.72 324.234 83.1183 324.244 82.4052C324.254 81.6921 324.631 81.1016 325.059 81.1239C325.486 81.1462 325.822 81.759 325.812 82.4498Z" fill="#263238"/>
<path d="M328.163 82.918C327.323 85.0973 326.21 87.1374 324.854 88.9792C325.295 89.3479 325.804 89.606 326.346 89.735C326.888 89.864 327.449 89.8608 327.99 89.7257L328.163 82.918Z" fill="#FF5652"/>
<path d="M330.718 91.7423C331.454 91.674 332.168 91.4409 332.818 91.0576C333.468 90.6743 334.039 90.1488 334.495 89.514C334.529 89.4747 334.547 89.4229 334.547 89.3691C334.547 89.3153 334.529 89.2635 334.495 89.2243C334.474 89.2076 334.45 89.1957 334.424 89.1895C334.399 89.1832 334.372 89.1827 334.347 89.1879C334.321 89.1931 334.297 89.2039 334.275 89.2198C334.253 89.2356 334.234 89.2561 334.22 89.28C333.694 89.9854 333.021 90.5426 332.258 90.9051C331.494 91.2676 330.663 91.4248 329.833 91.3635C329.806 91.362 329.78 91.3664 329.755 91.3763C329.731 91.3863 329.708 91.4016 329.689 91.4214C329.67 91.4413 329.655 91.4651 329.645 91.4915C329.634 91.518 329.629 91.5465 329.629 91.5752C329.629 91.6295 329.648 91.6817 329.682 91.7211C329.716 91.7605 329.763 91.7841 329.812 91.7869C330.115 91.7972 330.418 91.7823 330.718 91.7423Z" fill="#263238"/>
<path d="M335.616 80.1548C335.682 80.1475 335.746 80.1206 335.799 80.0768C335.841 80.0446 335.876 80.0038 335.903 79.9567C335.93 79.9096 335.948 79.8572 335.957 79.8023C335.965 79.7475 335.964 79.6913 335.953 79.6371C335.941 79.5829 335.92 79.5316 335.891 79.4863C335.545 78.9295 335.083 78.4711 334.543 78.1494C334.003 77.8277 333.401 77.6519 332.786 77.6367C332.735 77.6396 332.685 77.6534 332.639 77.6773C332.593 77.7013 332.552 77.7349 332.518 77.7763C332.484 77.8177 332.458 77.8661 332.441 77.9186C332.424 77.9711 332.417 78.0268 332.419 78.0824C332.421 78.1375 332.432 78.1918 332.453 78.242C332.474 78.2922 332.503 78.3374 332.54 78.3748C332.578 78.4122 332.621 78.4411 332.668 78.4597C332.716 78.4784 332.766 78.4865 332.816 78.4835C333.303 78.5013 333.779 78.646 334.203 78.9057C334.628 79.1654 334.991 79.5326 335.26 79.9765C335.3 80.0374 335.354 80.0859 335.416 80.1171C335.479 80.1483 335.548 80.1613 335.616 80.1548Z" fill="#263238"/>
<path d="M322.706 79.5753C322.769 79.5689 322.829 79.5451 322.88 79.5061C322.932 79.4671 322.974 79.4141 323.001 79.3524C323.212 78.8707 323.526 78.4513 323.916 78.1295C324.305 77.8077 324.76 77.5928 325.241 77.5029C325.333 77.4794 325.414 77.42 325.468 77.3358C325.523 77.2515 325.548 77.1484 325.538 77.0457C325.528 76.943 325.484 76.8478 325.414 76.7781C325.344 76.7084 325.254 76.669 325.159 76.6672C324.552 76.7704 323.976 77.0331 323.482 77.4328C322.987 77.8325 322.588 78.3573 322.319 78.9625C322.295 79.0112 322.28 79.0649 322.274 79.1203C322.269 79.1756 322.275 79.2315 322.29 79.2846C322.305 79.3377 322.33 79.3869 322.363 79.4292C322.396 79.4715 322.437 79.506 322.482 79.5307C322.55 79.5728 322.629 79.5885 322.706 79.5753Z" fill="#263238"/>
<path d="M343.006 393.888C343.727 393.865 344.444 393.757 345.144 393.565C345.181 393.554 345.214 393.531 345.24 393.5C345.265 393.468 345.281 393.428 345.286 393.387C345.291 393.346 345.287 393.306 345.272 393.268C345.258 393.231 345.235 393.199 345.205 393.175C344.899 392.974 342.263 391.203 341.367 391.704C341.267 391.762 341.183 391.849 341.123 391.955C341.064 392.06 341.032 392.182 341.031 392.306C341.011 392.513 341.037 392.722 341.106 392.916C341.175 393.109 341.285 393.282 341.428 393.42C341.892 393.762 342.447 393.927 343.006 393.888ZM344.584 393.264C343.189 393.565 342.13 393.509 341.682 393.097C341.582 393.006 341.505 392.889 341.459 392.756C341.413 392.623 341.398 392.48 341.418 392.339C341.415 392.288 341.425 392.238 341.446 392.192C341.468 392.147 341.5 392.109 341.54 392.083C342.049 391.816 343.515 392.584 344.584 393.309V393.264Z" fill="#8674AA"/>
<path d="M345.103 393.565C345.139 393.576 345.178 393.576 345.215 393.565C345.244 393.546 345.267 393.517 345.281 393.484C345.296 393.45 345.301 393.412 345.296 393.375C345.296 393.264 345.093 390.679 344.146 389.832C344.034 389.725 343.903 389.645 343.761 389.599C343.618 389.552 343.468 389.541 343.321 389.565C343.177 389.564 343.038 389.619 342.926 389.718C342.815 389.818 342.739 389.957 342.71 390.111C342.537 391.114 344.166 393.075 345.011 393.576L345.103 393.565ZM343.443 389.966C343.609 389.964 343.769 390.032 343.891 390.155C344.467 390.958 344.804 391.934 344.858 392.952C344.013 392.25 342.975 390.724 343.077 390.189C343.077 390.133 343.077 389.999 343.362 389.966H343.443Z" fill="#8674AA"/>
<path d="M273.334 383.192C273.369 383.187 273.403 383.172 273.432 383.149C273.46 383.125 273.483 383.094 273.497 383.058C273.511 383.018 273.514 382.974 273.505 382.932C273.496 382.891 273.475 382.853 273.446 382.824C273.14 382.512 270.392 379.816 269.292 380.117C269.19 380.146 269.096 380.203 269.019 380.283C268.943 380.363 268.886 380.463 268.855 380.573C268.788 380.754 268.762 380.95 268.78 381.144C268.798 381.338 268.858 381.525 268.957 381.688C269.618 382.802 271.96 383.103 273.303 383.203L273.334 383.192ZM269.466 380.518C270.117 380.518 271.654 381.688 272.754 382.746C270.931 382.546 269.649 382.089 269.282 381.476C269.217 381.371 269.178 381.249 269.167 381.122C269.156 380.996 269.175 380.868 269.221 380.752C269.229 380.707 269.249 380.665 269.278 380.631C269.307 380.598 269.343 380.574 269.384 380.562L269.466 380.518Z" fill="#8674AA"/>
<path d="M273.334 383.192H273.385C273.415 383.179 273.443 383.158 273.464 383.131C273.486 383.104 273.5 383.071 273.507 383.036C273.507 382.935 273.883 380.54 273.1 379.348C272.99 379.172 272.848 379.023 272.684 378.91C272.519 378.797 272.335 378.722 272.143 378.69C271.613 378.601 271.4 378.835 271.308 379.058C270.921 379.994 272.326 382.401 273.191 383.158C273.235 383.185 273.284 383.197 273.334 383.192ZM271.878 379.069H272.082C272.224 379.092 272.36 379.148 272.481 379.232C272.602 379.317 272.705 379.428 272.784 379.559C273.184 380.482 273.319 381.515 273.171 382.523C272.356 381.598 271.43 379.76 271.664 379.181C271.674 379.169 271.715 379.08 271.878 379.069Z" fill="#8674AA"/>
<path d="M359.772 125.77C360.953 131.574 361.95 137.346 362.826 143.184C363.701 149.023 364.485 154.872 365.096 160.8L365.31 163.028L365.432 164.41C365.525 165.492 365.435 166.583 365.167 167.63C364.804 169.084 364.074 170.397 363.06 171.418C362.212 172.252 361.203 172.865 360.108 173.212C358.834 173.604 357.503 173.722 356.188 173.557C354.481 173.352 352.8 172.933 351.18 172.309C349.724 171.763 348.38 171.195 347.108 170.515C344.553 169.238 342.063 167.814 339.646 166.248C337.254 164.699 334.963 163.106 332.683 161.29L335.584 155.374C340.521 157.245 345.55 159.251 350.376 160.699C351.577 161.067 352.768 161.379 353.898 161.602C354.843 161.838 355.81 161.95 356.779 161.936C357.074 161.936 357.308 161.791 356.84 161.88C356.383 162.009 355.966 162.266 355.629 162.627C355.1 163.14 354.712 163.803 354.509 164.543C354.423 164.881 354.372 165.229 354.356 165.579C354.356 165.769 354.356 165.468 354.305 165.312L354.214 164.777L353.847 162.66C352.849 157 351.831 151.322 350.793 145.624C349.775 139.931 348.696 134.204 347.739 128.533L359.772 125.77Z" fill="#FF8B7B"/>
<path d="M360.373 121.056C365.707 127.307 366.185 146.505 366.185 146.505L350.742 154.471C350.742 154.471 345.734 142.271 345.571 131.229C345.408 118.706 355.028 114.761 360.373 121.056Z" fill="#8674AA"/>
<path opacity="0.2" d="M360.373 121.056C365.707 127.307 366.185 146.505 366.185 146.505L350.742 154.471C350.742 154.471 345.734 142.271 345.571 131.229C345.408 118.706 355.028 114.761 360.373 121.056Z" fill="black"/>
<path d="M305.014 144.388C304.926 144.387 304.839 144.364 304.76 144.321C304.643 144.244 304.559 144.121 304.525 143.977C304.491 143.834 304.509 143.681 304.576 143.552L312.72 128.165C312.795 128.054 312.904 127.976 313.027 127.948C313.15 127.919 313.279 127.942 313.388 128.011C313.497 128.08 313.578 128.192 313.617 128.323C313.655 128.454 313.648 128.597 313.596 128.722L305.503 144.109C305.453 144.201 305.381 144.276 305.295 144.325C305.209 144.374 305.111 144.396 305.014 144.388Z" fill="#263238"/>
<path d="M330.28 187.184L299.506 182.281C298.875 182.176 298.293 181.844 297.853 181.338C297.412 180.832 297.138 180.18 297.073 179.485L295.037 132.989C295.022 132.679 295.073 132.37 295.186 132.085C295.299 131.8 295.47 131.548 295.687 131.348C295.905 131.148 296.161 131.006 296.437 130.933C296.713 130.861 297 130.859 297.277 130.928L328.051 135.82C328.683 135.93 329.264 136.265 329.706 136.772C330.147 137.279 330.424 137.931 330.494 138.627L332.479 185.122C332.493 185.428 332.442 185.733 332.331 186.013C332.221 186.294 332.053 186.543 331.841 186.742C331.629 186.941 331.378 187.084 331.107 187.161C330.837 187.237 330.554 187.245 330.28 187.184Z" fill="white"/>
<path d="M329.589 187.652L298.815 182.727C298.182 182.622 297.599 182.291 297.157 181.785C296.715 181.279 296.439 180.627 296.371 179.93L294.386 133.435C294.369 133.126 294.419 132.816 294.531 132.531C294.642 132.246 294.813 131.994 295.029 131.794C295.246 131.594 295.502 131.451 295.777 131.379C296.053 131.306 296.34 131.304 296.616 131.374L327.39 136.265C328.024 136.37 328.608 136.703 329.05 137.212C329.493 137.72 329.768 138.375 329.833 139.073L331.869 185.557C331.893 185.875 331.847 186.195 331.735 186.49C331.623 186.785 331.448 187.046 331.225 187.251C331.001 187.456 330.736 187.6 330.451 187.669C330.167 187.739 329.871 187.733 329.589 187.652Z" fill="#263238"/>
<path d="M336.175 155.541L328.937 151.084L328.092 162.471C328.092 162.471 335.014 164.766 336.531 160.878L336.175 155.541Z" fill="#FF8B7B"/>
<path d="M320.874 153.123L321.892 161.635L328.091 162.482L328.936 151.095L320.874 153.123Z" fill="#FF8B7B"/>
</svg>
