<svg width="77" height="60" viewBox="0 0 77 60" fill="none" xmlns="http://www.w3.org/2000/svg">
<path d="M48.9457 27.3114C57.9549 27.3941 62.1371 21.6842 60.2963 15.9472C58.4554 10.2102 50.5735 4.38954 41.5644 4.30681C32.5552 4.22408 28.373 9.93397 30.2138 15.671C32.0546 21.408 39.9366 27.2286 48.9457 27.3114Z" stroke="#A6B8F3" stroke-width="8.67243"/>
<path d="M65.361 24.0054C63.0532 16.483 54.214 12.7437 44.8679 17.2497C35.5219 21.7558 30.9595 31.9565 33.2673 39.4789C35.5751 47.0013 44.4143 50.7406 53.7603 46.2346C63.1064 41.7285 67.6688 31.5278 65.361 24.0054Z" stroke="#7481AA" stroke-width="8.67243"/>
<path d="M59.4736 31.4057C65.164 23.3801 61.3476 14.1981 49.2868 11.4994C37.226 8.80067 23.2168 13.9941 17.5264 22.0196C11.836 30.0451 15.6524 39.2271 27.7132 41.9259C39.774 44.6246 53.7832 39.4312 59.4736 31.4057Z" stroke="#8674AA" stroke-width="8.67243"/>
<path d="M61.6948 21.8705C61.7476 17.861 57.7777 14.3146 51.2392 15.7776C44.7007 17.2407 40.6137 22.5899 40.5609 26.5994C40.5081 30.6088 44.478 34.1553 51.0165 32.6922C57.555 31.2292 61.642 25.8799 61.6948 21.8705Z" stroke="#DBA5F3" stroke-width="8.67243"/>
</svg>
